

<svg id="note_1" xmlns="http://www.w3.org/2000/svg" viewBox="0 0 2667.775 486.296">
<defs>
<style>.cls-1_note,.cls-3,.cls-4_note{

    fill:none;
    stroke-linecap:round;
    stroke-miterlimit:10;
}
.cls-1_note{stroke:#ed1e79;
    stroke-width:18px;
    stroke-dasharray:500 35;
}
.cls-2_note{
fill:#2de2e6;}.cls-3_note,.cls-4_note{
    stroke:#2de2e6;
    stroke-width:10px;
}
.cls-3_note{
    stroke-dasharray:250 20;
}
.cls-4_note{
    stroke-dasharray:200 20;
}
.cls-3, .cls-4{
    fill: white;
}
</style>
</defs>
<title>8th_note</title>
<path class="cls-1_note" id="note1" d="M106,785" transform="translate(-500.989 -223.776)"/>
<path class="cls-2_note" id="note2" d="M507.681,647.31a5,5,0,0,0-4.838,3.755,59.07,59.07,0,0,0-1.543,8.406h0l-.013.117h0l-.012.117h0l-.012.117h0l0,.039h0l-.012.117h0l-.011.116h0l-.012.116v0l-.01.116h0l-.01.115v0l-.011.115h0l0,.038h0l-.007.077h0l0,.039h0l-.007.077h0l0,.038v0l-.006.075h0l0,.038v0l0,.038h0l0,.039h0l0,.037v0l0,.037h0l0,.036v0l0,.036v0l0,.037h0l-.006.075v0l0,.036v0l0,.076v0l0,.037v0l0,.074v0l0,.037v0l0,.075v0l0,.036v0l0,.074v0l0,.036v0l0,.075v0l0,.036v0l0,.074v0l0,.037v0l0,.037v0l0,.038h0l0,.037v0l0,.037h0l0,.038h0l0,.036v0l0,.034v0l0,.036h0l0,.035v.007l0,.034v0l0,.073v0l0,.035v.006l0,.071v0l0,.035v0l0,.037h0l0,.036v.08h0l0,.036v0l0,.036v.042l0,.036v.081l0,.035v.043l0,.034v.006l0,.071v.044l0,.035v.083l0,.069v.584h0v.115h0v.115h0v.115h0v.115h0v.615h0v.845h0v.808l0,.069v.007l0,.034v0l0,.071v.044l0,.072v.042l0,.036h0v.078l0,.036h0v.039l0,.035v0l0,.035v0l0,.036h0v.04l0,.036v0l0,.072v0l0,.034v0l0,.072v0l0,.035v0l0,.072v0l0,.034v0l0,.071v0l0,.035v0l0,.072v0l0,.035v0l0,.072v0l0,.035v0l0,.035v0l0,.033v0l0,.034v.006l0,.034v0l0,.037h0l0,.035v0l0,.035v0l0,.07v.006l0,.034v.005l0,.034h0l0,.035v0l0,.035v0l0,.072v0l0,.036v0l0,.035h0l0,.036v0l0,.035v0l0,.036h0l0,.036v0l0,.035v0l0,.035v0l0,.035v0l0,.035v0l0,.035h0l0,.036h0l0,.036v0l0,.036v0l.006.072v0l0,.037h0l.007.075h0l0,.037h0l.006.073v0l0,.036v0l.007.073v0l0,.035v0l.007.072h0l0,.036v0l0,.036h0l.007.074v0l.007.073h0l0,.036v0l.012.112h0l.011.111v0l0,.035v0l.008.072v0l0,.036v0l.008.074h0l0,.036v0l.008.071v0l0,.034v0l0,.036h0l0,.037h0l0,.035v0l.013.109v0l0,.035v0l.008.071v0l0,.035h0l.009.073v0l0,.035v0l.01.071v0l0,.035v0l.009.072h0l0,.036v0l.01.072v0l0,.036v0l.015.11v0l.015.11v0l.016.11v0l.016.111h0l0,.037h0l.011.072v0l.006.036h0l.011.073h0l0,.037h0l.017.111h0l.017.11v0l.017.11h0l.017.111h0l.018.111h0l.018.111h0c.015.087.029.173.044.259h0l.019.11h0l.019.11h0l.02.109v0l.02.109h0c.02.111.04.221.061.331h0l.007.036h0c.021.11.043.22.065.331h0c.014.074.029.146.044.219v0l.007.036h0l.023.11h0c.015.074.03.147.046.22h0c.015.074.031.147.047.22h0c.042.195.086.389.131.584h0a42.653,42.653,0,0,0,1.333,4.585h0c.066.188.133.374.2.561h0q.1.279.211.558h0c.04.105.081.209.122.313h0l.041.1h0l.055.139h0c.028.07.055.138.084.208h0l.042.1h0l.042.1v0l.043.1h0l.014.034h0l.029.068h0l.044.1h0l.043.1h0l.059.137h0l.044.1h0l.045.1h0l.09.2v0l.045.1h0l.062.136h0l.03.068h0l.015.034h0c.062.136.125.271.188.407h0l.047.1h0l.048.1h0l.048.1h0l.015.033v0c.032.067.065.134.1.2v0l.032.064v0l.015.031,0,0,.048.1h0l.049.1v0l.016.032h0l.032.065v0l.016.033h0l.084.166v0l.016.031,0,0,.033.066h0l.017.033v0l.033.065h0l.017.032v0l.017.032h0l.017.032h0l.017.032v0l.05.1,0,0,.016.031v0l.033.063,0,0,.016.031h0l.035.065v0l.016.031,0,0,.033.063,0,0,.016.031v0l.035.065h0l.016.032,0,0,.034.064v0l.017.031v0l.052.1,0,0,.016.031h0l.017.032h0l.017.032v0l.018.032h0l.035.064,0,0,.017.03v0l.017.03h0l.017.031,0,0,.016.031,0,0,.034.061,0,0,.016.029,0,0,.035.061,0,0,.016.029,0,.006.016.029h0l.018.03v0l.017.03,0,0,.016.029,0,0,.017.029v0l.017.029,0,0,.017.03v0l.016.029,0,0,.017.03,0,0,.017.029,0,0,.017.029h0l.017.03,0,0,.016.029,0,0,.017.03h0l.018.03,0,0,.017.029,0,0,.034.059,0,.006.016.028,0,0,.017.03h0l.017.03,0,0,.018.029,0,0,.017.03h0l.017.029,0,0,.017.029,0,0,.036.061,0,0,.017.029,0,0,.018.029v0l.017.028,0,0,.017.028,0,.006.017.027,0,.006.016.027,0,0,.017.029,0,.006.018.029,0,0,.018.029h0l.018.03,0,0,.018.028,0,0,.017.029h0l.017.03,0,0,.017.028,0,0,.037.06,0,0,.017.029,0,0,.036.059,0,0,.017.029,0,0,.018.028,0,0,.016.026,0,0,.017.028,0,0,.018.029,0,0,.017.027,0,0,.018.028,0,.006.018.028,0,0,.018.028,0,0,.017.028,0,.007.017.027,0,0,.017.027,0,0,.018.028,0,0,.018.028,0,.006.016.026,0,0,.018.028,0,.006.017.027,0,0,.018.029c9.015,14.018,25.561,21.168,44.525,21.168h2.367l.047,0h.236l.055,0h.085l.058,0h.082l.065,0h.045l.1,0h.047l.1,0h.046l.1,0h.008l.031,0h.008l.1,0h.046l.1,0H556l.1-.006h.041l.1,0h.006l.033,0h0l.105-.006h0l.141-.007h0l.14-.008h0l.14-.008h0l.141-.009h0l.14-.009h0l.14-.009h0l.106-.007h0l.032,0h.008l.137-.009h.008l.1-.006h.006l.03,0h.011l.03,0h0l.064,0h.01l.029,0h.013l.028,0h0l.062,0h.012l.027,0h.015l.089-.006.015,0h.026l.017,0,.025,0h.014l.047,0,.018,0,.023,0h.02l.024,0h.015l.045,0h.018l.024,0,.021,0h.021l.039,0,.018,0,.026,0h.018l.027,0h.017l.041,0h.014l.029,0h.018l.03,0h.013l.042,0,.014,0,.031,0h.014l.035,0h.009l.045,0h.007l.038,0h.01l.093-.008h0l.045,0h0l.144-.013h0q1.107-.1,2.223-.23a5,5,0,0,0-.589-9.965,5.057,5.057,0,0,0-.586.034,69.938,69.938,0,0,1-8.087.481c-16.176,0-29.339-6.042-36.114-16.577-6.674-10.378-5.641-22.008-3.6-29.937a5.007,5.007,0,0,0-4.846-6.249Zm131.56-18.77a5,5,0,0,0-4.972,4.527c-1.818,19.14-15.868,39.339-36.666,52.714a94.314,94.314,0,0,1-19.963,9.777A5,5,0,1,0,580.927,705l.05-.018.007,0,.04-.014.013,0,.036-.012.013,0,.035-.012.015,0,.034-.012.013,0,.043-.015,0,0,.1-.034.014,0,.035-.013.014,0,.034-.012.014,0,.035-.012.014,0,.037-.013.011,0,.1-.035.007,0,.04-.015.013,0,.035-.013.015,0,.033-.012.015,0,.036-.013.012,0,.042-.015.006,0,.049-.017.005,0,.043-.016.011,0,.036-.014.016,0,.032-.012.017-.006.031-.011.016-.006.036-.013.012,0,.1-.036.01,0,.038-.014.015,0,.032-.012.017-.006.032-.012.016-.006.034-.012.013,0,.04-.015.008,0,.049-.018h0l.047-.017.012,0,.036-.013.014,0,.033-.013.016-.006.033-.012.015,0,.037-.014.01,0,.1-.036.007,0,.04-.015.013,0,.035-.014.015,0,.034-.013.014,0,.034-.013.015-.006.039-.014.008,0,.048-.018.006,0,.042-.015.013,0,.035-.013.015-.006.035-.013.013,0,.034-.013.015-.006.037-.014.01,0,.1-.036.009,0,.039-.015.013,0,.035-.013.014,0,.035-.014.014,0,.035-.013.013,0,.038-.015.01,0,.049-.018h0l.045-.017.016-.006.033-.013.015-.006.032-.013.017-.006.033-.013.014,0,.035-.014.013,0,.1-.037.007,0,.04-.016.015,0,.033-.013.016-.007.032-.012.015-.006.035-.013.014-.006.04-.016.007,0,.049-.02h0l.047-.018.01,0,.037-.015.016-.006.032-.013.016-.006.032-.013.016-.006.035-.014.013-.005.046-.018h0l.049-.019.006,0,.042-.017.013,0,.035-.014.014-.006.034-.013.015-.006.035-.014.012,0,.04-.016.008,0,.1-.039.011,0,.037-.015.014-.006.033-.013.016-.007.033-.013.015-.006.036-.014.011,0,.046-.018h0l.048-.02.013,0,.035-.014.015-.006.033-.014.016-.006.033-.013.015-.006.034-.014.014-.006.041-.017,0,0,.1-.04.009,0,.038-.015.015-.006.034-.014.014-.006.035-.014.013-.006.038-.015.01,0,.1-.041h0l.045-.019.013,0,.035-.015.015-.006.033-.013.016-.007.034-.014.013-.006.04-.016.007,0,.1-.041.01,0,.038-.016.014,0,.034-.015.015-.006.034-.014.014-.006.035-.015.013,0,.044-.019h0l.05-.021h0l.047-.02.013,0,.034-.015.016-.006.032-.014.016-.006.034-.015.014-.006.036-.015.011,0,.047-.02h0l.048-.02.007,0,.04-.017.013-.006.035-.015.015-.006.033-.014.015-.007.036-.015.011,0,.046-.019h0l.05-.021h0l.047-.02.012,0,.036-.015.014-.006.034-.015.014-.006.035-.015.013-.006.037-.016.011,0,.1-.042.006,0,.042-.018.012,0,.034-.015.016-.008.033-.014.015-.006.035-.015.012-.006.043-.019,0,0,.049-.021h0l.044-.02.011,0,.037-.016.014-.006.033-.015.017-.007.031-.013.017-.008.034-.015.012,0,.1-.043.008,0,.039-.017.014-.006.034-.015.015-.007.032-.014.016-.007.033-.015.015-.006.036-.016.012-.006.047-.021,0,0,.043-.019.012-.006.036-.015.014-.007.033-.015.016-.007.033-.014.015-.007.035-.016.012,0,.1-.043.01,0,.038-.017.013-.006.035-.016.013,0,.036-.017.013-.006.035-.015.013-.007.042-.019,0,0,.1-.044.012,0,.034-.016.017-.007.031-.015.016-.007.033-.015.015-.007.036-.016.011,0,.046-.021h0l.049-.023.006,0,.041-.019.014-.007.034-.015.015-.007.032-.015.016-.007.033-.016.014-.006.038-.017.01,0,.048-.022,0,0,.044-.02.014-.007.033-.015.016-.007.032-.015.017-.008.031-.014.016-.008.032-.015.017-.007.041-.02,0,0,.048-.022.01,0,.038-.018.013-.006.033-.016.017-.007.032-.015.015-.008.035-.016.012,0,.04-.019.008,0,.1-.045.011,0,.036-.018.015-.006.033-.016.016-.007.031-.015.017-.008.034-.017.012-.005.044-.021,0,0,.048-.023.01,0,.036-.017.018-.008.03-.014.017-.009.031-.014.016-.008.033-.016.015-.007.039-.018.007,0,.1-.046.01,0,.037-.018.014-.007.033-.016.016-.007.034-.017.013-.006.037-.018.01,0,.1-.046,0,0,.043-.02.011-.006.036-.017.015-.007.033-.016.015-.008.033-.016.015-.007.039-.019.007,0,.1-.047,0,0,.041-.02.013-.006.035-.017.014-.007.034-.017.014-.007.035-.017.012-.006.041-.02.007,0,.049-.024h0l.045-.022.013-.007.035-.017.015-.007.032-.016.016-.008.033-.016.014-.007.037-.018.01-.005.1-.048.01,0,.037-.018.014-.007.034-.017.014-.008.034-.016.014-.007.034-.017.014-.007.041-.021.006,0,.048-.024h0l.046-.023.011,0,.035-.018.015-.008.033-.016.015-.008.034-.017.013-.006.038-.02.01,0,.1-.049,0,0,.042-.021.013-.006.033-.017.017-.009.03-.015.018-.009.032-.016.014-.007.039-.021.008,0,.1-.049.012-.006.036-.018.014-.007.033-.017.015-.008.034-.017.013-.007.036-.019.012-.006.1-.049.009,0,.038-.02.013-.006.035-.019.014-.007.033-.017.015-.008.033-.017.015-.007.04-.021.006,0,.048-.025,0,0,.043-.022.01,0,.037-.019.013-.007.035-.018.014-.007.033-.018.014-.007.038-.02.009,0,.1-.05.007,0,.04-.02.013-.007.035-.018.013-.007.035-.019.013-.006.036-.02.011,0,.039-.021.009,0,.1-.05.013-.007.034-.018.015-.008.031-.017.017-.009.032-.017.015-.007.034-.019.013-.007.046-.024h0l.048-.026.009,0,.037-.02.015-.008.032-.017.016-.008.033-.018.014-.007.033-.018.015-.008.036-.019.011-.006.047-.025h0l.046-.025.012-.006.034-.018.017-.009.031-.017.016-.009.032-.017.015-.008.034-.018.014-.007.037-.02.01-.006.046-.025.01,0,.038-.021.014-.007.032-.018.016-.009.032-.017.015-.008.036-.019.01-.006.041-.022.007,0,.094-.052.014-.007.034-.018.015-.009.031-.017.017-.009.032-.017.015-.009.033-.018.013-.007.046-.025h0l.047-.026.012-.006.034-.019.018-.01.029-.016.019-.01.028-.016.018-.01.03-.016.017-.01.036-.019.01-.006.094-.052.012-.007.035-.019.015-.009.032-.017.016-.009.031-.017.016-.01.034-.018.012-.007.095-.053,0,0,.042-.023.013-.008.034-.018.014-.008.033-.019.015-.008.033-.019.014-.008.036-.02.011-.006.094-.053.009,0,.038-.022.014-.007.032-.019.016-.009.032-.018.015-.008.033-.019.014-.008.041-.023,0,0,.048-.027,0,0,.041-.023.015-.009.032-.018.016-.009.031-.018.016-.009.031-.018.016-.009.035-.02.011-.006.046-.026h0l.048-.027.01-.006.035-.02.018-.01.029-.017.017-.01.03-.017.017-.01.032-.018.014-.008.037-.021.01-.006.047-.028h0l.045-.027.012-.006.034-.02.016-.009.03-.018.017-.01.032-.018.014-.008.036-.021.011-.007.094-.054.009,0,.038-.023.012-.007.034-.019.016-.01.031-.018.016-.009.031-.019.015-.008.037-.022.01,0,.047-.028.006,0,.04-.023.013-.008.033-.019.017-.01.03-.018.017-.01.03-.017.017-.01.033-.02.012-.007.04-.024.007,0,.047-.027.012-.007.034-.021.014-.008.034-.02.014-.008.031-.019.017-.01.031-.018.015-.01.036-.02.011-.007.046-.027.01-.007.035-.02.019-.012.028-.016.018-.011.029-.017.018-.011.029-.017.017-.011.031-.018.015-.009.093-.056.009,0,.038-.023.013-.008.033-.02.015-.009.032-.019.015-.009.032-.02.015-.009.036-.022.01,0,.047-.029h0l.045-.028.014-.008.032-.02.017-.01.029-.018.017-.01.03-.018.017-.011.032-.019.014-.008.04-.025.006,0,.047-.029.011-.007.034-.02.018-.011.029-.018.017-.01.03-.019.016-.009.032-.02.015-.009.032-.02.014-.009.046-.028h0l.044-.027.013-.008.034-.021.014-.009.031-.019.018-.011.03-.018.015-.01.033-.02.014-.009.04-.025.006,0,.045-.028.015-.009.032-.02.016-.01.03-.019.017-.01.03-.019.016-.01.031-.019.015-.01.038-.023.008,0,.093-.058.014-.009.031-.02.018-.011.029-.018.017-.01.029-.019.017-.01.033-.021.013-.008.036-.023.011-.006.045-.029.013-.008.033-.02.017-.011.029-.019.018-.011.027-.017.02-.012.029-.019.016-.01.034-.022.011-.007.092-.058.015-.009.032-.02.015-.01.031-.02.016-.01.03-.019.017-.011.029-.018.017-.011.039-.025.006,0,.046-.029.012-.008.034-.022.017-.011.028-.017.019-.013.028-.017.018-.012.028-.018.018-.011.031-.021.014-.009.046-.029h0l.032-.021.009,0,.023-.015.01-.007.063-.04.011-.007.024-.016.007,0,.033-.021,0,0,.029-.018.009-.006.023-.015.01-.007.032-.02,0,0,.029-.018.008-.006.03-.019h0l.034-.022,0,0,.03-.019.006,0,.029-.02,0,0,.033-.022,0,0,.026-.017.011-.007.03-.019h0l.034-.021,0,0,.028-.019.006,0,.066-.043,0,0,.029-.019.005,0,.066-.043.006,0,.029-.019,0,0,.067-.044,0,0,.028-.018.006,0,.066-.043.006,0,.031-.02h0l.033-.022,0,0,.029-.019,0,0,.1-.067,0,0,.068-.045,0,0,.032-.021,0,0,.068-.045h0l.033-.022,0,0,.068-.045,0,0,.032-.021h0l.068-.046h0l.033-.022,0,0,.066-.045,0,0,.033-.021h0l.035-.023h0l.034-.023h0l.033-.023h0l.035-.023h0l.029-.02.007,0,.066-.045h0l.033-.022h0l.068-.046,0,0,.03-.02,0,0,.064-.044.008,0,.028-.019,0,0,.067-.046,0,0,.032-.022h0l.068-.046h0l.1-.069,0,0,.1-.068,0,0,.066-.046h0l.032-.022,0,0,.067-.046h0l.033-.022,0,0,.068-.046h0l.033-.023h0l.067-.047h0l.032-.022,0,0,.068-.046h0l.1-.071h0l.1-.071h0l.1-.07,0,0,.1-.07h0l.067-.047h0l.306-.215h0l.1-.072h0l.2-.144h0l.1-.072h0l.067-.048h0l.031-.022,0,0c14.4-10.306,25.1-23.353,31.2-36.858h0q.406-.9.786-1.806h0l.039-.094h0c.026-.064.052-.125.078-.189v0l.026-.062h0l.039-.094v0l.012-.03h0l.025-.063h0l.012-.031h0l.025-.062v0l.012-.03h0l.012-.032v0l.011-.027,0,0,.038-.093h0l.064-.158v0l.05-.126h0l.026-.063v0l.038-.094h0l.037-.1h0l.074-.189v0l.025-.062h0l.049-.125v0l.024-.061v0l.036-.093v0l.011-.03h0l.023-.061,0,0,.035-.091v0l.011-.028v0l.012-.031v0l.01-.026,0-.007.011-.028h0l.011-.029,0-.008.009-.023,0-.006.023-.06,0,0,.009-.025,0-.006.022-.061,0,0,.01-.028v0l.012-.03v0l.011-.028,0,0,.009-.025,0,0,.012-.031h0l.01-.029,0-.006.01-.026v0l.011-.03v0l.01-.028,0,0,.01-.025v0l.012-.03v0l.011-.028,0,0,.022-.059,0-.006.009-.024,0-.007.022-.059,0,0,.008-.024,0-.008.022-.057,0-.007.009-.025,0,0,.011-.029v0l.011-.029v0l.01-.027,0,0,.011-.03v0l.01-.026,0-.009.008-.022,0-.007.011-.029,0,0,.009-.024,0-.007.009-.024,0-.006.01-.029,0,0,.009-.025,0-.008.009-.025v0l.01-.029,0-.006.009-.025v0l.022-.061v0l.009-.025,0-.007.02-.058,0-.008.008-.022,0-.007.01-.028v-.006l.009-.024,0-.008.008-.022,0-.008.011-.029h0l.01-.027,0-.008.01-.026v0l.011-.03,0,0,.008-.025,0-.007.008-.024,0-.006.011-.029v0l.009-.025,0-.008.02-.057,0-.007.008-.024,0-.006.01-.029h0l.011-.029,0-.007.007-.021,0-.011.019-.055,0-.009.008-.022,0-.007.01-.029v0l.009-.026,0-.008.007-.022,0-.008.019-.056,0-.01.007-.021,0-.008.01-.029v0l.009-.026,0-.007.009-.024,0-.006.02-.059,0-.006.009-.027v0l.009-.03,0-.007.007-.022,0-.008.008-.023,0-.007.01-.028,0-.008.007-.02,0-.01.009-.025v0l.009-.027,0-.01.007-.02,0-.009.008-.024,0-.008.008-.026,0-.007.008-.022,0-.008.009-.028v0l.008-.024,0-.011.006-.018,0-.01.008-.023,0-.014,0-.018,0-.012,0-.016,0-.013.008-.025,0-.012,0-.017,0-.013,0-.017,0-.01.008-.027,0-.011.006-.018,0-.011.006-.019,0-.01.008-.026,0-.012,0-.016,0-.014,0-.015,0-.016.007-.022,0-.012,0-.016,0-.014,0-.014.007-.021.006-.018,0-.012.006-.017,0-.013,0-.016.007-.02,0-.017,0-.013,0-.016,0-.012.008-.024,0-.013,0-.017,0-.013,0-.015,0-.014.008-.025,0-.012,0-.016,0-.013.006-.017,0-.012.008-.025,0-.013,0-.015,0-.013.006-.017,0-.012.008-.026,0-.012,0-.015,0-.013.006-.019,0-.009.008-.026,0-.013,0-.015,0-.014.005-.016.006-.02,0-.017,0-.014,0-.014,0-.014.005-.014.008-.027,0-.011,0-.016,0-.012,0-.015,0-.014.008-.026,0-.012,0-.016,0-.012,0-.015.006-.019.006-.021,0-.012,0-.016,0-.013,0-.014,0-.016.007-.025,0-.011,0-.016,0-.012.012-.038h0l0-.017,0-.011.006-.017,0-.01.007-.026,0-.015,0-.016,0-.011,0-.016,0-.013.008-.027,0-.011,0-.017,0-.011,0-.017,0-.009.009-.031,0-.01,0-.017,0-.011,0-.017,0-.009.008-.031,0-.01,0-.017,0-.011,0-.016,0-.018.006-.02,0-.014,0-.015,0-.013.005-.015,0-.01.009-.031,0-.01,0-.017,0-.011.011-.036v0l0-.016,0-.011,0-.017,0-.011.009-.029,0-.011,0-.017,0-.01,0-.017,0-.009.009-.032,0-.01,0-.015,0-.013,0-.016,0-.012.008-.025,0-.015,0-.014,0-.014,0-.014,0-.014.007-.025,0-.013.005-.017,0-.009,0-.018,0-.007.01-.034,0-.01,0-.017,0-.009.017-.059,0-.01,0-.016,0-.011.016-.057,0-.011,0-.017,0-.009.01-.035,0-.006,0-.017,0-.011,0-.017,0-.007.017-.06,0-.01,0-.018V644.2l.012-.041h0l0-.019,0-.009,0-.018v0l.011-.038v-.006l0-.018,0-.01,0-.018h0l.012-.042v-.006l0-.019,0-.008.017-.063,0,0,0-.019,0-.009.017-.061v-.006l0-.019,0-.009.016-.061,0-.006,0-.019,0-.007.017-.064v0l0-.021v0l.018-.067v0l0-.021v0l.018-.068v0l.018-.067v0l0-.02,0,0,.017-.066v0l.006-.022v0l.042-.162h0l.024-.093v0l.024-.093h0c.016-.063.032-.125.047-.188h0c.075-.3.147-.6.217-.894v0l.022-.093h0c.022-.094.043-.188.065-.282h0l.021-.094h0a57.87,57.87,0,0,0,1.175-7.3,5,5,0,0,0-4.506-5.441c-.161-.016-.32-.023-.479-.023Zm-46.025-44.418h0c-16.224,0-34.218,5.235-50.773,15.881h0l-.035.023-.01.006-.035.022,0,0-.034.022-.007,0-.036.023-.007,0-.033.021,0,0-.036.023-.008.006-.033.02,0,0-.036.023-.008,0-.075.048,0,0-.076.049-.006,0-.038.025h0l-.036.023-.006,0-.037.024,0,0-.035.023,0,0-.037.024-.006,0-.075.049,0,0-.077.05,0,0-.04.026h0l-.039.026h0l-.037.024-.007,0-.036.023h0l-.04.026h0l-.077.051,0,0-.078.051h0l-.077.052,0,0-.038.026h0l-.039.026h0l-.04.026h0l-.08.053h0l-.439.294,0,0-.278.188h0l-.356.243h0l-.076.053h0l-.077.054h0a97.454,97.454,0,0,0-29.179,30.845,5,5,0,1,0,8.644,5.028,88.125,88.125,0,0,1,28.68-29.281c14.331-9.215,30.441-14.291,45.364-14.291h0c16.174,0,29.337,6.042,36.111,16.576a31.492,31.492,0,0,1,3.3,6.819,5,5,0,1,0,9.461-3.238q-.163-.477-.338-.951h0l-.053-.144v0l-.013-.035h0l-.027-.071v0l-.013-.033v0l-.013-.034h0l-.027-.07v0l-.013-.033v0l-.013-.034v0l-.013-.033h0l-.013-.034,0,0-.012-.032,0-.006-.012-.032,0,0-.012-.03,0,0-.012-.03,0-.006-.012-.031,0-.007-.012-.03,0-.007-.011-.028,0-.007-.011-.028,0-.008-.012-.029,0-.008-.012-.029,0-.008-.01-.026,0-.01-.01-.027,0-.007-.012-.029,0-.009-.012-.029,0-.008-.01-.025,0-.011-.011-.025,0-.009-.011-.028,0-.01-.011-.028,0-.009-.01-.024,0-.011-.01-.025,0-.01-.011-.027,0-.011-.011-.026,0-.01-.01-.024,0-.011-.01-.025,0-.01-.011-.026,0-.011-.011-.027,0-.01-.009-.024,0-.011-.01-.025,0-.009-.011-.027,0-.011-.011-.027,0-.009-.01-.024,0-.012-.01-.025,0-.008-.012-.028,0-.01-.012-.028,0-.009-.011-.024,0-.011-.011-.025,0-.009-.012-.028,0-.009-.012-.028,0-.008-.011-.026,0-.009-.011-.026,0-.009-.012-.028,0-.009-.013-.029,0-.006-.012-.028,0-.007-.012-.028,0-.008-.013-.028,0-.009-.013-.029,0-.006-.012-.028,0-.007-.012-.028,0-.007-.013-.029,0-.008-.014-.03,0,0-.013-.03,0,0-.013-.031,0-.006-.013-.031,0-.006-.014-.03,0,0-.013-.031,0,0-.014-.031,0,0-.014-.031,0-.006-.014-.031,0,0-.03-.067v0l-.015-.032,0-.006-.015-.031v0l-.031-.068v0l-.015-.033v0l-.015-.033h0l-.032-.07h0l-.016-.035h0l-.016-.035h0l-.032-.07h0l-.016-.034v0l-.065-.14h0l-.066-.14h0a41.362,41.362,0,0,0-2.429-4.4h0l-.021-.033h0l-.042-.065v0l-.02-.03,0,0-.019-.03,0,0-.02-.031h0c-9.013-14.016-25.558-21.166-44.52-21.167h0Z" transform="translate(-500.989 -223.776)"/>
<path class="cls-3_note" id="note3" d="M642,593V224s3,67,73,128,53,164,13,221" transform="translate(-500.989 -223.776)"/>
<path class="cls-4_note" id="note4" d="M650,354s76,10,89,79-17,144-17,144" transform="translate(-500.989 -223.776)"/>
</svg>