<!--?xml-stylesheet type="text/css" href="css/app.css"?-->


<svg xmlns="http://www.w3.org/2000/svg" viewBox="0 0 964.158 628">
<defs>
<style>
@keyframes fade{
    0%{opacity: 0}
    100%{opacity: 1}
}


.cls-1{
    fill:#ff3864;

}
.cls-2,.cls-3,.cls-4,.cls-6{
    fill:none;
    stroke-linecap:round;
    stroke-miterlimit:10;
    stroke-width:18px;
}
.cls-2{
    stroke:#ed1e79;
}

.cls-2,.cls-4,.cls-6{
    stroke-dasharray:500 35;
}
.cls-3,.cls-4{
    stroke:#f706cf;
}
.cls-3{
    stroke-dasharray:200 30;
}
.cls-5{
    fill:#2de2e6;
}
.cls-6{stroke:#2de2e6;
}

#Head, #Eyes, #Mouth{
        animation: fade 2s ease;
}

</style>
</defs>
<title>modern_robot</title>
<g id="Head">
<path class="cls-1" d="M307.256,330.4a9,9,0,0,0-8.967,8.354q-.184,2.61-.251,5.249v0l0,.183v0l0,.182v0l0,.181v.007l0,.089h0l0,.09v.1l0,.178v.009l0,.178v.011l0,.177v.669l0,.168V637A116,116,0,0,0,414,753h19.533a9,9,0,0,0,0-18H414a98.111,98.111,0,0,1-98-98V347c0-2.321.082-4.666.243-6.97a9,9,0,0,0-8.349-9.607c-.214-.015-.426-.022-.638-.022ZM882,616.7a9,9,0,0,0-9,9V637a98.111,98.111,0,0,1-98,98H468.533a9,9,0,1,0,0,18H775A116,116,0,0,0,891,637V625.7a9,9,0,0,0-9-9ZM775,231H412.214l-.086,0h-.2l-.078,0h-.2l-.069,0h-.016l-.086,0h-.018l-.066,0h-.028l-.062,0h-.023l-.084,0H411l-.168,0H410.8l-.063,0h-.025l-.075,0h-.01l-.087,0h-.016l-.069,0h-.024l-.069,0h-.017l-.085,0h-.016l-.07,0h-.023l-.067,0h-.021l-.17.006h-.023l-.066,0h-.021l-.081,0h0l-.086,0h-.02l-.065,0H409.5l-.074,0h-.009l-.088,0h-.014l-.071,0h-.023l-.068,0h-.018l-.087,0h0l-.081,0h-.023l-.066,0h-.021l-.084,0h0l-.084,0-.024,0-.062,0-.026,0-.07,0h-.015l-.084,0h-.02l-.067,0H408.3l-.067,0h-.021l-.084,0h-.016l-.067,0-.029,0-.06,0h-.024l-.169.009h-.023l-.064,0h-.024l-.079,0h0l-.086,0h-.021l-.065,0h-.025l-.066,0h-.019l-.085,0h-.01l-.075,0h-.022l-.069,0h-.017l-.086,0h0l-.081,0h-.02l-.065,0h-.024l-.077.005h-.008l-.084.005h-.023l-.062,0-.025,0-.069,0h-.016l-.086.006h-.012l-.072,0h-.023l-.07,0h-.015l-.088.006h0l-.084.006h-.02l-.065,0-.024,0-.168.012-.022,0-.064,0-.024,0-.072,0h-.012l-.086.006h-.015l-.069,0-.025,0-.066.005-.017,0-.085.006h-.015l-.071.006h-.021l-.069.006h-.017l-.17.013-.023,0-.063,0-.023,0-.073.006h-.012l-.084.007h-.021l-.063.005-.026,0-.067,0-.017,0-.084.007h-.015l-.069.006-.024,0-.065,0-.021,0-.169.015h-.021l-.065.006-.022,0-.078.007H403.6l-.083.007-.024,0-.062.006-.025,0-.07.006h-.013l-.084.008-.019,0-.067.006-.023,0-.066.006-.018,0-.085.008h-.011l-.072.007-.026,0-.06.006-.024,0-.083.008h0l-.084.009-.021,0-.062.006-.027,0-.068.007-.015,0-.083.008-.02,0-.063.006-.027,0-.06.006-.025,0-.081.008-.018,0-.065.006-.028,0-.058.006-.026,0-.082.009h0l-.078.008-.025,0-.061.006-.024,0-.081.009h0l-.084.009-.023,0-.063.007-.023,0-.069.007-.015,0-.084.009-.015,0-.067.007-.028,0-.062.007-.019,0-.086.01h0l-.083.009-.02,0-.065.008-.022,0-.168.02-.018,0-.069.008-.018,0-.076.009h-.009l-.086.01h-.011l-.073.009-.021,0-.068.009-.017,0-.084.01h-.012l-.071.009-.022,0-.065.007-.021,0-.166.02-.022,0-.065.008-.02,0-.076.009h-.008l-.085.011-.016,0-.067.008-.024,0-.067.008-.016,0-.085.011h-.007l-.077.01-.02,0-.065.009-.02,0-.168.022-.019,0-.066.009-.021,0-.076.01H398.5l-.085.011-.016,0-.067.009-.023,0-.072.01h-.01l-.087.012h-.006l-.078.011-.017,0-.071.01-.015,0-.167.023-.022,0-.066.01-.017,0-.17.024-.016,0-.067.01-.022,0-.079.011h0l-.087.012-.013,0-.072.01-.018,0-.071.01-.014,0-.168.025-.019,0-.069.01-.016,0-.169.026-.015,0-.069.01-.02,0-.167.026-.016,0-.069.011-.019,0-.073.011-.01,0-.17.026-.016,0-.075.012-.01,0-.17.027-.015,0-.071.011-.016,0-.17.027-.011,0-.075.012-.014,0-.08.013h0l-.088.014h0l-.079.013-.016,0-.074.012-.01,0-.171.028-.013,0-.074.012-.013,0-.17.029-.014,0-.07.012-.017,0-.08.013h0l-.087.015h-.007l-.074.013-.021,0-.069.012-.013,0-.168.03-.017,0-.069.012-.016,0-.167.03-.017,0-.068.012-.018,0-.078.014h-.005l-.084.015-.014,0-.07.012-.018,0-.076.014H393.2l-.085.016-.011,0-.071.013-.022,0-.066.012-.016,0-.166.03-.02,0-.067.012-.015,0-.169.032-.011,0-.071.013-.019,0-.075.014h-.007l-.086.016-.007,0-.075.014-.018,0-.068.013-.016,0-.165.031-.018,0-.07.013-.013,0-.169.033-.011,0-.073.014-.016,0-.08.016h0l-.084.016-.015,0-.068.014-.02,0-.07.013-.012,0-.084.017h0l-.077.015-.021,0-.065.013-.017,0-.164.033-.022.005-.058.011-.027.006-.071.014-.008,0-.083.017-.015,0-.066.014-.021,0-.066.014-.017,0-.083.017h-.006l-.074.016-.021,0-.065.014-.017,0-.163.035-.021,0-.064.014-.019,0-.163.035-.018,0-.066.015-.019,0-.074.016h-.007l-.083.018-.015,0-.064.014-.027.006-.061.013-.017,0-.083.018-.007,0-.074.016-.019,0-.064.014-.02,0-.162.036-.02,0-.063.014-.02,0-.072.016-.01,0-.083.019-.01,0-.071.016-.018,0-.074.017h-.007l-.084.019-.012,0-.068.016-.022.005-.062.014-.021,0-.16.036-.022.006-.063.014-.018,0-.078.018h0l-.083.02-.013,0-.068.017-.02,0-.077.018h0l-.086.02h0l-.079.019-.012,0-.073.018-.011,0-.167.04-.013,0-.071.017-.013,0-.167.041-.009,0-.072.017-.017,0-.074.018-.007,0-.082.02-.016,0-.064.015-.023.006-.064.016-.016,0-.162.04-.018,0-.067.017-.016,0-.164.041-.013,0-.067.017-.02,0-.077.02h0l-.082.021-.015,0-.066.016-.02.006-.068.017-.013,0-.082.021-.008,0-.071.018-.021.005-.064.017-.017,0-.16.041-.021.006-.061.015-.021.006-.074.019-.006,0-.081.021-.015,0-.068.017-.015,0-.074.02-.008,0-.082.021-.011,0-.068.018-.022.006-.065.017-.014,0-.164.043-.013,0-.069.018-.016,0-.162.043-.015,0-.067.018L383.7,235l-.071.019-.01,0-.082.022-.009,0-.072.02-.016,0-.071.019-.01,0-.083.023h0l-.077.021-.016,0-.067.019-.015,0-.162.045-.015,0-.067.019-.016,0-.078.022h0l-.083.023-.011,0-.067.019-.021.006-.069.019-.01,0-.082.023-.007,0-.07.02-.024.007-.056.016-.024.007-.157.044-.02.006-.062.018-.019,0-.16.046-.013,0-.067.019-.019.006-.071.02-.008,0-.08.023-.015,0-.066.019-.018.006-.067.019-.013,0-.082.024h0l-.075.022-.022.006-.061.018-.018,0-.159.048-.016,0-.064.019-.02.006-.074.022h0l-.081.025-.015,0-.065.019-.019.006-.065.019-.016,0-.08.024-.006,0-.071.022-.021.006-.063.019-.016,0-.08.024h0l-.077.023-.02.006-.06.019-.021.006-.073.022,0,0-.078.024-.019.006-.063.019-.018.006-.063.019-.018.006-.077.024-.017.005-.059.018-.029.009-.053.017-.023.007-.077.024-.009,0-.069.021-.022.007-.056.018-.025.008-.073.023h0l-.079.025-.017.006-.063.02-.019.006-.066.021-.013,0-.081.026h0l-.072.023-.02.006-.065.021-.014,0-.08.025h0l-.073.024-.022.007-.059.019-.021.007-.153.049-.025.008-.054.018-.024.008-.065.021-.012,0-.078.025-.016,0-.062.021-.022.007-.066.022-.01,0-.08.027-.008,0-.07.023-.021.007-.058.019-.021.007-.077.026h0l-.073.024-.024.008-.056.019-.022.007-.065.022-.013,0-.076.026-.02.007-.058.019-.023.008-.061.02-.017.006-.075.025-.021.007-.057.02-.023.007-.06.021-.018.006-.078.027h0l-.073.025-.025.008-.056.019-.022.008-.069.024-.007,0-.076.026-.023.008-.054.019-.027.009-.057.02-.018.006-.075.026-.019.007-.06.02-.022.008-.058.02-.02.007-.077.027,0,0-.073.026-.018.006-.059.021-.021.007-.067.024-.015,0-.071.025-.021.007-.056.02-.024.009-.063.022-.013,0-.077.027-.016.006-.062.022-.019.007-.064.022-.014,0-.079.028-.007,0-.066.024-.025.009-.057.02-.019.007-.155.056-.017.006-.059.022-.023.008-.066.024-.009,0-.074.027-.025.009-.053.02-.026.009-.054.02-.022.008-.073.027-.021.007-.055.021-.026.009-.055.02-.021.008-.074.027-.014.006-.062.023-.025.009-.054.02-.022.008-.067.025-.009,0-.073.028-.028.01-.049.018-.026.01-.055.021-.022.008-.073.027-.02.007-.055.021-.025.01-.057.021-.02.008-.075.028-.01,0-.065.025-.023.008-.052.02-.028.011-.068.026-.006,0-.073.028-.021.008-.059.022-.019.008-.063.024-.014,0-.075.029-.018.007-.057.022-.025.009-.055.022-.021.008-.073.028-.018.007-.058.022-.024.01-.053.02-.024.009-.073.029-.008,0-.067.027-.023.009-.055.021-.022.009-.064.025-.012,0-.075.03-.018.007-.054.021-.029.012-.054.021-.019.007-.074.03-.017.006-.058.023-.024.01-.053.021-.023.009-.075.03,0,0-.071.028-.02.008-.058.023-.019.008-.068.027-.008,0-.073.03-.023.009-.054.022-.023.009-.066.026-.007,0-.076.031-.019.008-.057.023-.023.009-.056.023-.019.008-.075.03-.011.005-.061.024-.028.012-.05.02-.023.01-.07.029-.008,0-.07.029-.022.009-.053.022-.024.009-.062.026-.013,0-.073.03-.021.009-.054.023-.024.009-.054.023-.022.009-.072.03-.017.007-.057.024-.024.01-.053.022-.023.01-.072.03-.013,0-.061.026-.024.01-.051.022-.026.011-.056.023-.018.008-.069.029-.031.013-.044.019-.029.012-.051.021-.022.01-.072.03-.018.008-.056.024-.026.011-.049.021-.025.011-.071.03-.016.007-.058.025-.026.011-.047.02-.028.012-.059.026-.016.006-.069.03-.025.011-.049.021-.027.012-.05.022-.024.01-.07.031-.022.009-.051.022-.028.012-.049.022-.024.01-.071.031-.018.008-.056.025-.024.01-.052.023-.023.01-.145.064-.024.01-.052.024-.022.009-.065.029-.008,0-.075.033-.017.007-.055.025-.025.011-.056.025-.016.007-.074.033-.014.006-.061.027-.019.009-.059.026-.016.008-.148.066-.02.009-.056.025-.02.009-.061.028-.014.006-.071.033-.02.008-.056.026-.02.009-.063.029-.01,0-.075.034-.014.007-.06.027-.019.009-.058.026-.018.008-.074.034,0,0-.067.03-.02.01-.059.027-.015.007-.148.068-.018.008-.058.027-.019.009-.066.031-.006,0-.076.034-.012.006-.063.029-.017.008-.058.028-.017.008-.074.034-.008,0-.066.031-.017.008-.06.028-.015.007-.15.07-.013.006-.059.029-.02.009-.068.032,0,0-.074.035-.017.008-.057.027-.02.009-.058.028-.016.008-.074.035-.007,0-.064.031-.021.01-.057.027-.016.008-.074.036h0l-.072.034-.017.009-.056.027-.021.01-.146.07-.013.007-.063.03-.014.007-.066.032-.008,0-.076.037-.006,0-.068.033-.015.007-.066.032-.006,0-.077.038h0l-.074.036-.009.005-.068.033-.008,0-.152.075-.009,0-.069.034-.007,0-.154.077h0l-.069.035-.014.007-.069.034,0,0-.152.076-.01,0-.067.034-.009,0-.151.075-.008,0-.068.034-.009,0-.153.077h0l-.074.037-.007,0-.153.078h0l-.074.037-.009,0-.068.035-.007,0-.149.077-.014.007-.061.031-.013.007-.15.077-.005,0-.069.036-.01,0-.225.117-.009,0-.069.036-.006,0-.15.078-.01.006-.067.035-.008,0-.151.079,0,0-.07.037-.009,0-.149.078-.008,0-.067.036-.009,0-.224.118-.01,0-.071.038h0l-.153.081,0,0-.072.039,0,0-.229.122,0,0-.229.124h0l-.228.124,0,0-.072.039,0,0-.152.083h0l-.075.041h0l-.227.125-.006,0-.3.168h0a116.413,116.413,0,0,0-25.808,19.467l0,0c-.328.328-.652.656-.976.988h0c-.142.146-.283.29-.424.436h0l-.421.438v0l-.178.186,0,0-.177.186,0,0-.177.187,0,0-.055.058-.006.006-.116.124h0l-.058.062,0,0-.176.188,0,0-.176.189h0c-.139.148-.275.3-.412.445l0,0-.231.252,0,0-.114.125,0,0-.053.058-.005.006-.114.125,0,0-.052.057-.009.01-.053.059h0l-.114.126-.006.006-.051.058,0,0-.112.124-.008.01-.05.055,0,0-.168.188-.008.009-.166.187-.008.008-.049.056-.006.007-.11.124-.009.01-.047.054-.009.009-.11.125,0,.006-.05.056-.008.009-.109.125-.007.007-.047.055-.01.011-.05.056,0,0-.11.126-.009.01-.05.057,0,0-.11.127-.009.009-.044.051-.012.015-.051.058v0l-.055.063-.007.008-.048.055-.007.009-.05.058,0,.006-.108.125-.009.011-.047.055-.007.008-.108.126-.007.008-.048.056-.007.009-.108.126-.008.01-.045.052-.011.014-.047.055,0,.006-.054.064,0,0-.048.056-.013.016-.041.049-.011.013-.052.062,0,0-.049.059-.012.014-.04.047-.014.017-.1.124-.009.01L325,272.6l-.013.015-.044.053-.008.01-.052.062-.008.009-.043.052-.013.016-.042.05-.011.013-.052.062,0,0-.049.058-.012.015-.039.047-.014.017-.1.121-.017.02-.036.044-.014.017-.1.125-.009.011-.041.05-.015.019-.04.048-.01.012-.05.062-.012.014-.039.048-.016.019-.037.045-.013.017-.051.062h0l-.049.06-.014.017-.038.048-.013.015-.045.056-.006.007-.05.063-.011.013-.04.049-.013.017-.043.053-.008.009-.05.062-.011.015-.04.049-.013.016-.039.049-.012.015-.051.063v0l-.048.06-.012.015-.043.054-.007.009-.1.129-.008.011-.041.051-.014.017-.048.061h0l-.053.066,0,.007-.046.058-.009.011-.044.056-.007.009-.1.128-.012.015-.04.05-.011.015-.05.063v0l-.049.062-.01.013-.04.051-.013.016-.047.06v0l-.051.065-.01.012-.04.052-.012.015-.042.055-.008.009-.051.066,0,0-.045.058-.014.018-.039.05-.01.013-.1.128-.011.015-.037.049-.014.018-.1.126-.013.017-.036.046-.015.02-.037.047-.012.017-.048.062-.01.013-.038.05-.015.019-.039.052-.008.01-.05.066,0,0-.045.059-.012.016-.037.049-.013.017-.048.062h0l-.047.062-.016.021-.034.045-.014.019-.04.052-.009.012-.047.062-.013.018-.034.045-.018.023-.033.045-.014.018-.046.062-.012.016-.035.046-.018.024-.03.04-.019.026-.037.049-.017.023-.037.049-.017.024-.03.04-.019.025-.032.043-.015.02-.044.06-.016.021-.032.044-.018.024-.033.044-.013.018-.046.062-.013.018-.035.047-.015.02-.034.047-.013.018-.048.064h0l-.047.063-.013.018-.034.047-.015.019-.04.055-.007.01-.046.063-.015.021-.03.04-.019.027-.033.045-.012.017-.047.064-.01.015-.035.047-.017.024-.03.041-.018.024-.044.062-.009.012-.037.051-.017.023-.031.043-.015.022-.042.058,0,0-.045.062-.017.024-.03.042-.017.024-.034.047-.011.016-.045.062-.016.023-.03.041-.018.026-.03.041-.015.022-.044.061-.016.024-.029.039-.021.03-.025.036-.019.026-.035.05-.02.028-.034.048-.016.023-.031.043-.015.022-.04.056-.006.008-.045.064-.015.022-.03.042-.017.025-.03.043-.016.023-.043.061-.015.021-.03.042-.018.026-.03.043-.015.022-.04.057-.018.025-.03.044-.018.026-.028.04-.018.026-.035.051-.009.012-.042.061-.019.027-.028.041-.017.024-.031.045-.014.02-.042.062-.016.022-.029.043-.019.026-.029.043-.014.021-.044.063-.01.015-.035.052-.015.022-.028.04-.019.028-.038.055-.007.01-.042.062-.015.022-.03.044-.016.023-.032.048-.013.018-.044.065-.01.015-.033.048-.017.026-.027.04-.018.026-.04.06-.019.028-.025.036-.02.03-.025.037-.019.028-.04.06-.011.016-.033.049-.02.03-.024.036-.02.029-.027.042-.016.023-.04.06-.019.028-.025.037-.02.031-.028.042-.013.02-.042.063-.016.024-.028.042-.018.027-.026.039-.018.027-.038.057-.016.025-.03.045-.018.027-.026.04-.017.026-.03.045-.021.033-.034.051-.016.024-.027.042-.017.025-.03.046-.014.021-.041.063-.013.02-.032.048-.013.02-.033.051-.012.018-.042.065-.012.019-.029.045-.019.028-.026.041-.017.025-.036.056-.01.016-.038.058-.014.022-.029.045-.017.026-.029.046-.013.019-.041.064-.014.022-.029.045-.016.025-.027.043-.016.025-.041.063-.012.018-.031.049-.015.024-.028.044-.015.024-.036.056-.015.024-.033.051-.014.022L316,284.9l-.015.025-.035.054-.007.012-.042.065-.014.023-.028.045-.015.023-.031.05-.012.018-.042.067-.008.013-.033.053-.015.022-.032.052-.009.015-.086.136-.012.019-.03.048-.014.024-.083.132-.012.02-.032.051-.012.019-.034.056-.008.012-.042.068-.01.016-.032.051-.014.023-.03.049-.012.019-.04.065-.011.019-.031.05-.014.022-.03.05-.012.018-.042.069h0l-.04.066-.015.024-.028.045-.013.023-.034.055-.008.013-.04.066-.013.022-.028.045-.016.026-.029.048-.012.02-.04.066-.01.017-.031.051-.014.023-.029.048-.013.021-.082.137-.01.016-.033.056-.01.015-.039.066,0,0-.042.071-.008.013-.034.056-.011.019-.036.06,0,.008-.041.07-.007.012-.036.06-.009.014-.034.058-.008.014-.042.07,0,.006-.037.062-.012.021-.031.052-.01.016-.084.143,0,.009-.035.06-.01.016-.04.068h0l-.043.073-.005.009-.036.061-.009.015-.033.058-.009.014-.082.141-.008.015-.035.06-.006.011-.084.144-.006.01-.035.062-.008.013-.082.142-.008.013-.034.06-.007.013-.038.066,0,0-.043.075h0l-.04.069-.008.014-.036.063,0,.007-.083.146-.007.013-.033.057-.009.017-.081.143-.006.01-.036.063-.006.011-.038.069,0,0-.041.073,0,.008-.036.063-.008.015-.034.061-.007.011-.04.073v0l-.039.069-.007.013-.035.062-.007.012-.08.145-.006.01-.036.064,0,.011-.082.148v0l-.038.068-.008.015-.035.064,0,.007-.041.074v0l-.039.071-.006.012-.033.06-.008.014-.079.145-.007.013-.032.059-.009.016L312,291.7l0,.007-.04.073,0,.009-.034.063-.008.014-.036.068,0,0-.08.148-.006.011-.035.066,0,.008-.079.147-.007.013-.033.063-.006.01-.079.149,0,.006-.036.067-.007.013-.079.149h0l-.039.073,0,.009-.038.071v0l-.08.152,0,.007-.038.072v0l-.08.154,0,0-.038.072,0,.007-.079.152v0l-.038.072,0,.009-.038.073h0l-.079.153,0,.006-.038.073v0l-.078.153,0,.006-.035.07,0,.008-.117.231h0l-.119.234h0l-.276.55h0c-.04.078-.078.155-.117.234l0,0q-2.261,4.55-4.129,9.32a9,9,0,0,0,16.769,6.544A98.04,98.04,0,0,1,414,249H775a98.111,98.111,0,0,1,98,98V590.7a9,9,0,0,0,18,0V347A116,116,0,0,0,775,231Z" transform="translate(-110.455 -125)"/><path class="cls-2" d="M498,393.136" transform="translate(-110.455 -125)"/>
<path class="cls-2" d="M823,381.051" transform="translate(-110.455 -125)"/>
<path class="cls-2" d="M498,336.971" transform="translate(-110.455 -125)"/>
<path class="cls-2" d="M847.331,341" transform="translate(-110.455 -125)"/>
<path class="cls-2" d="M398,389" transform="translate(-110.455 -125)"/>
<path class="cls-3" d="M1004.809,585.752c34.188-.406,61.406-42.508,60.794-94.038s-28.823-92.973-63.011-92.567Z" transform="translate(-110.455 -125)"/>
<path class="cls-4" d="M907,605.3a33.7,33.7,0,0,0,67.4,0V376.7a33.7,33.7,0,0,0-67.4,0Z" transform="translate(-110.455 -125)"/>
<path class="cls-3" d="M180.458,396.13c-34.188.332-61.5,42.376-61,93.906s28.622,93.035,62.811,92.7Z" transform="translate(-110.455 -125)"/>
<path class="cls-4" d="M209.867,604.874a34.492,34.492,0,0,0,68.984,0V377.684a34.492,34.492,0,1,0-68.984,0Z" transform="translate(-110.455 -125)"/>
<path class="cls-2" d="M106,785" transform="translate(-110.455 -125)"/>
<path class="cls-4" d="M278,324.594V203a69.2,69.2,0,0,1,69-69H838a69.2,69.2,0,0,1,69,69V326.943" transform="translate(-110.455 -125)"/></g>

<g id="Eyes">
<path class="cls-5" d="M521.012,400.005a9,9,0,0,0-7.9,13.3,65.548,65.548,0,0,1-78.693,93.237,9,9,0,0,0-5.79,17.044q1.482.5,2.989.953h0l.2.059h0l.047.014,0,0,.048.014h0l.2.058h0l.047.014h0l.2.057h0l.048.013.006,0,.245.07.007,0,.045.013h.006l.195.055.006,0,.044.012.009,0,.045.012h0l.149.041h0l.045.012.01,0,.044.012.007,0,.144.04h0l.044.012.011,0,.042.012.01,0,.191.051.009,0,.042.011.012,0,.042.011.01,0,.143.038h0l.043.011.013,0,.041.011.012,0,.143.038h0l.04.01.016,0,.038.01.016,0,.04.01.01,0,.137.035.011,0,.041.011.013,0,.041.011.014,0,.137.035.007,0,.039.01.017,0,.039.009.016,0,.038.01.016,0,.085.021,0,0,.038.009.016,0,.038.009.019,0,.037.009.017,0,.039.01h0l.09.022.015,0,.037.009.02,0,.034.008.022.006.036.009.013,0,.13.032.018,0,.037.009.018,0,.038.01.018,0,.126.03.017,0,.037.009.02,0,.036.009.02,0,.036.009.014,0,.082.02.01,0,.039.009.017,0,.037.009.019,0,.038.009.014,0,.13.03.017,0,.037.009.019,0,.037.009.018,0,.124.029.021,0,.035.008.022,0,.035.008.021,0,.035.008.02,0,.077.017.011,0,.036.008.02,0,.036.008.021,0,.036.008.017,0,.126.028.021.005.034.007.022,0,.035.008.022,0,.035.007.018,0,.076.016.013,0,.036.008.021,0,.036.008.021,0,.035.007.022,0,.121.026.022,0,.034.007.024,0,.033.007.025.006.032.007.023,0,.065.014.021,0,.035.007.022,0,.034.007.024,0,.033.007.025,0,.12.025.021,0,.035.008.022,0,.035.007.022,0,.036.007.007,0,.084.017.016,0,.035.007.023,0,.035.007.021,0,.036.008.02,0,.069.014.02,0,.033.006.024,0,.034.007.024,0,.033.006.024,0,.034.007.012,0,.074.015.023,0,.034.007.023,0,.034.007.023,0,.036.008.016,0,.072.014.02,0,.034.007.024,0,.034.006.022,0,.036.007.022,0,.077.014.01,0,.032.006.027,0,.03.006.028,0,.031.006.028,0,.029.006.032.006.054.01.026.005.032.006.025,0,.033.006.026,0,.033.006.024,0,.057.01.029.006.03.005.029,0,.03.006.028,0,.031,0,.028,0,.031.006.032.006.052.009.026,0,.033.006.026,0,.031.006.029,0,.029,0,.034.006.044.008.035.006.029,0,.03,0,.028,0,.031.006.029,0,.03,0,.028,0,.055.009.025,0,.035.006.026,0,.033.006.026,0,.035.006.025,0,.044.008.03,0,.04.007.026,0,.034.006.026,0,.034.006.025,0,.036.006.028,0,.051.009.026,0,.034.006.027,0,.032,0,.028,0,.03,0,.03,0,.043.007.034,0,.036.006.028.005.03,0,.03,0,.029,0,.031,0,.029,0,.046.008.037,0,.03,0,.029,0,.03,0,.03,0,.029,0,.032,0,.027,0,.055.008.029,0,.029,0,.031,0,.028,0,.032,0,.026,0,.032,0,.032,0,.046.007.036,0,.029,0,.029,0,.031,0,.029,0,.029,0,.032,0,.027,0,.055.008.028,0,.031,0,.031,0,.029,0,.028,0,.034,0,.026,0,.046.007.033,0,.035,0,.03,0,.031,0,.028,0,.031,0,.029,0,.032,0,.039,0,.043.006.029,0,.03,0,.03,0,.03,0,.03,0,.031,0,.027,0,.045.006.037,0,.034,0,.028,0,.031,0,.028,0,.033,0,.027,0,.035,0,.042.006.038,0,.028,0,.032,0,.029,0,.03,0,.03,0,.03,0,.03,0,.055.007.026,0,.033,0,.029,0,.031,0,.029,0,.031,0,.029,0,.038,0,.039,0,.038,0,.026,0,.035,0,.025,0,.036,0,.026,0,.039,0,.02,0,.057.007.025,0,.035,0,.027,0,.032,0,.029,0,.034,0,.026,0,.057.006.018,0,.041,0,.027,0,.033,0,.028,0,.034,0,.025,0,.04,0,.026,0,.051.006.026,0,.034,0,.028,0,.033,0,.027,0,.035,0,.025,0,.057.006.024,0,.035,0,.029,0,.032,0,.028,0,.033,0,.027,0,.045,0,.022,0,.049,0,.028,0,.033,0,.028,0,.033,0,.027,0,.036,0,.024,0,.057.006.024,0,.037,0,.025,0,.036,0,.026,0,.035,0,.025,0,.04,0,.043,0,.034,0,.028,0,.032,0,.029,0,.033,0,.027,0,.038,0,.022,0,.057,0,.024,0,.037,0,.027,0,.034,0,.026,0,.036,0,.025,0,.058.006h.018l.042,0,.024,0,.038,0,.024,0,.037,0,.025,0,.044,0,.018,0,.056,0,.024,0,.036,0,.028,0,.033,0,.028,0,.036,0,.023,0,.059.006h.019l.042,0,.024,0,.037,0,.024,0,.04,0h.021l.058,0h.008l.055,0h.02l.041,0,.024,0,.038,0,.023,0,.043,0,.018,0,.059,0,.021,0,.04,0,.024,0,.038,0,.024,0,.04,0,.021,0,.06,0h.013l.047,0,.025,0,.036,0h.025l.039,0,.022,0,.052,0h.008l.061,0h.02l.041,0,.024,0,.038,0h.024l.041,0,.02,0,.059,0h.019l.042,0,.024,0,.038,0,.024,0,.041,0h.02l.052,0h.013l.057,0,.021,0,.039,0,.025,0,.038,0,.023,0,.042,0h.02l.06,0h.016l.046,0,.021,0,.04,0,.023,0,.041,0h.021l.06,0h.009l.052,0h.023l.039,0,.024,0,.038,0h.024l.045,0h.016l.059,0h.023l.038,0,.026,0,.036,0h.027l.037,0h.023l.059,0h.019l.043,0h.024l.036,0h.027l.037,0h.024l.046,0h.015l.059,0h.023l.039,0h.025l.038,0h.023l.044,0h.018l.061,0h.015l.045,0h.025l.038,0h.024l.04,0h.022l.059,0h0l.059,0h.083l.041,0h.022l.048,0h.013l.061,0h.02l.042,0h.085l.044,0h.019l.061,0h.011l.051,0h.02l.042,0h.023l.041,0h.083l.061,0h.541l.062,0H455.5A83.5,83.5,0,0,0,539,444.5v-1.012h0v-.276l0-.119v-.219l0-.117v-.277h0v-.2l0-.057V442.2l0-.059v-.276l0-.059v-.074l0-.056v-.014l0-.049V441.6l0-.055v-.017l0-.057v0l0-.053V441.4l0-.054v-.017l0-.045v-.015l0-.056V441.2l0-.058v0l0-.055v-.015l0-.055V441l0-.048v-.013l0-.055v-.018l0-.056V440.8l0-.05v-.018l0-.054v-.015l0-.048V440.6l0-.056v-.016l0-.057v-.006l0-.052V440.4l0-.053v-.018l0-.045v-.014l0-.054v-.02l0-.052v-.012l0-.047v-.019l0-.053v-.017l0-.043v-.018l0-.053v-.018l0-.055V439.8l0-.05v-.016l0-.054v-.017l0-.046V439.6l0-.055v-.016l0-.057v-.006l0-.051V439.4l0-.055v-.014l0-.049v-.012l0-.056V439.2l0-.057v-.008l0-.051v-.015l0-.055v-.016l0-.046v-.014l0-.054v-.018l0-.055V438.8l0-.05v-.017l0-.054v-.016l0-.045V438.6l0-.053v-.018l0-.055v-.009l0-.049V438.4l0-.053,0-.018,0-.045v-.013l0-.054V438.2l0-.051v-.016l0-.043,0-.021,0-.051,0-.019,0-.041v-.018l0-.051,0-.021,0-.05V437.8l0-.043,0-.021,0-.05,0-.022,0-.038v-.019l0-.05v-.023l0-.048,0-.018,0-.041,0-.022,0-.05,0-.022,0-.036,0-.023,0-.048,0-.023,0-.045,0-.022,0-.039,0-.024,0-.047,0-.024,0-.035,0-.025,0-.046,0-.023,0-.044,0-.025,0-.036,0-.025,0-.048,0-.022,0-.036,0-.027,0-.043,0-.024,0-.042,0-.027,0-.036,0-.024,0-.047,0-.025,0-.034,0-.028,0-.042,0-.025,0-.039,0-.031,0-.033,0-.026,0-.046,0-.028,0-.027,0-.041,0-.032,0-.027,0-.036,0-.035,0-.03,0-.027,0-.045,0-.029,0-.026,0-.041,0-.032,0-.029,0-.032,0-.039,0-.027,0-.03,0-.043,0-.028,0-.029,0-.039,0-.033,0-.027,0-.034,0-.037,0-.03,0-.027,0-.044,0-.029,0-.027,0-.043,0-.028,0-.031,0-.029,0-.041,0-.027,0-.029,0-.044,0-.028,0-.028,0-.042,0-.029,0-.029,0-.033,0-.038,0-.028,0-.028-.006-.044,0-.03,0-.026,0-.042,0-.029,0-.03,0-.031,0-.039,0-.027,0-.03-.006-.043,0-.028,0-.028,0-.043,0-.028,0-.029,0-.029-.006-.044,0-.024,0-.031,0-.042,0-.03,0-.025-.007-.049,0-.021,0-.034,0-.021-.007-.051,0-.021,0-.032-.006-.042,0-.031,0-.022-.007-.051,0-.022,0-.032,0-.024-.007-.048,0-.022,0-.032v-.009l-.009-.064,0-.021-.007-.052,0-.021,0-.033,0-.021-.008-.053,0-.018-.015-.108,0-.018-.008-.057,0-.017,0-.033,0-.019-.008-.056,0-.016-.016-.11,0-.014-.01-.067v-.007l0-.039v0l-.01-.07,0-.012-.017-.112,0-.013-.01-.067V432l0-.038v0l-.011-.072v-.008l-.018-.116v0l-.012-.077h0l-.018-.116v-.009l-.018-.114v-.009l-.012-.071v-.006l-.006-.039h0l-.012-.075v-.01l-.018-.113,0-.009-.012-.075h0l-.019-.116v-.007l-.019-.116v-.006l-.013-.077h0l-.007-.04h0l-.012-.075,0-.008-.019-.114,0-.01-.012-.072v0l-.021-.118v0l-.02-.118v0l-.035-.2v0l-.021-.118v0a82.923,82.923,0,0,0-8.448-24.48l0,0-.054-.1v0l-.091-.171,0,0-.055-.1,0,0-.09-.168,0-.007-.036-.066a9,9,0,0,0-7.917-4.707ZM455.5,361A83.5,83.5,0,0,0,372,444.5v2.62l0,.043v.026l0,.049v.02l0,.068v.095l0,.043v.1l0,.038v.1l0,.038v.068l0,.033v.069l0,.035v.033l0,.037v.031l0,.038v.068l0,.032v.038l0,.03v.038l0,.031,0,.037v.032l0,.037v.032l0,.039v.029l0,.043,0,.025,0,.057v.011l0,.069v.013l0,.056v.02l0,.048,0,.028,0,.041v.03l0,.037,0,.033,0,.036,0,.032,0,.036,0,.032,0,.037v.033l0,.035,0,.033,0,.036,0,.032,0,.036,0,.033,0,.035,0,.033,0,.035,0,.034,0,.034,0,.034,0,.034,0,.034,0,.036,0,.032,0,.039,0,.029,0,.041v.027l0,.043,0,.025,0,.046,0,.03,0,.06,0,.03,0,.038,0,.03,0,.039,0,.029,0,.039,0,.029,0,.039,0,.03,0,.038,0,.031,0,.037,0,.032,0,.036,0,.032,0,.036,0,.034,0,.033,0,.034,0,.035,0,.033,0,.036,0,.031,0,.037,0,.032,0,.036,0,.031,0,.037,0,.032,0,.037,0,.03,0,.038,0,.031,0,.039,0,.028,0,.044,0,.024.011.135,0,.029,0,.04,0,.028,0,.039,0,.029,0,.04,0,.028,0,.039,0,.03,0,.038,0,.03,0,.038,0,.029,0,.04,0,.028,0,.039,0,.031,0,.036,0,.031,0,.037,0,.031,0,.038,0,.03,0,.036,0,.032,0,.036,0,.032,0,.037,0,.03,0,.039,0,.029,0,.039,0,.028,0,.045,0,.022,0,.054,0,.014.013.136,0,.017,0,.051,0,.018,0,.05,0,.023,0,.044,0,.028,0,.039,0,.029,0,.039,0,.029,0,.038,0,.03,0,.037,0,.032,0,.035,0,.033,0,.035,0,.031,0,.037,0,.031,0,.036,0,.031,0,.037,0,.031.005.037,0,.029,0,.04,0,.028,0,.04,0,.027,0,.041,0,.027.006.047,0,.019.006.055,0,.013.015.135,0,.02,0,.048,0,.023.005.043,0,.028,0,.04,0,.028,0,.039,0,.028,0,.04,0,.027,0,.04,0,.028,0,.04,0,.027,0,.039,0,.029,0,.039,0,.028,0,.039,0,.028,0,.041,0,.026,0,.041,0,.026.006.043,0,.024,0,.044,0,.023.006.045,0,.023.006.047,0,.019.007.053,0,.015.008.065v0l.018.135,0,.018.006.049,0,.022.006.045,0,.024,0,.043,0,.025.006.042,0,.026.006.041,0,.026.006.04,0,.028,0,.039,0,.028.006.039,0,.028.006.04,0,.027,0,.039,0,.028.006.04,0,.026.006.041,0,.027,0,.041,0,.025.006.042,0,.025.006.046,0,.02.007.046,0,.022.008.054,0,.012c.01.068.02.133.03.2l0,.014.008.053,0,.016.007.05,0,.019.008.049,0,.02.007.045,0,.025.006.042,0,.025.006.041,0,.026.007.042,0,.025.006.04,0,.027.007.04,0,.027.006.039,0,.028.007.039,0,.028.006.037,0,.03.006.038,0,.027.007.042,0,.024.007.044,0,.023.007.045,0,.021.009.056,0,.01.022.135v0l.011.064,0,.018.008.048,0,.02.007.047,0,.022.007.043,0,.025.007.042,0,.025.007.041,0,.025.008.042,0,.025.007.041,0,.025.007.041.005.027.007.04,0,.025.008.042,0,.024.008.043,0,.023.008.044,0,.022.008.047,0,.018.009.05,0,.017.009.052,0,.014.01.053,0,.014c.016.09.032.176.049.266l0,.011.01.056,0,.014.009.051,0,.02.008.046,0,.021.009.044,0,.025.008.042,0,.024.008.042,0,.023.008.044,0,.021.009.045,0,.021.009.046,0,.021.008.045,0,.021.009.045,0,.021.009.045,0,.021.009.048,0,.017.01.052,0,.014.011.057,0,.008.012.064v0c.017.09.035.178.053.267v.008l.012.058,0,.011.012.055,0,.014.011.052,0,.014.01.052,0,.017.01.048,0,.018.009.048,0,.019.01.047,0,.019.009.046,0,.021.009.045,0,.02.009.046,0,.02.01.047,0,.018.01.048,0,.018.01.048,0,.018.011.05,0,.015.012.057,0,.008.012.059,0,.007.057.265,0,.007.013.058,0,.012.012.053,0,.016.012.05,0,.017.011.047,0,.021.01.045,0,.019.01.047,0,.019.011.047,0,.019.01.046.005.02.01.046,0,.019.01.046,0,.019.011.047,0,.019.011.046,0,.019.012.049,0,.016.013.055,0,.009.014.062v0c.026.111.051.22.077.33v0l.015.06,0,.01.013.055,0,.013.012.052,0,.016.012.048,0,.019.011.046,0,.019.011.046,0,.02.011.045,0,.02.011.045.005.02.011.046,0,.018.011.048,0,.018.012.048,0,.016.011.048,0,.018.013.052,0,.011.014.057,0,.008c.032.132.065.262.1.394h0l.017.065v0l.016.061,0,.009.015.056,0,.01.014.054,0,.014.014.051,0,.013.013.051,0,.015.013.051,0,.014.013.05,0,.015.013.051,0,.013.013.052,0,.013.014.054,0,.01.015.057,0,.008.016.06v0l.14.522v0l.017.06,0,.008.015.056,0,.01.015.054,0,.012.015.053,0,.012.014.052,0,.013.014.052,0,.012.014.052,0,.013.014.052,0,.013.014.052,0,.012.016.054,0,.01.016.056,0,.008.018.061v0c.055.195.111.388.167.582l0,.006.017.058,0,.008.016.055,0,.012.016.053,0,.011.016.053,0,.012.016.053,0,.01.015.053,0,.012.016.054,0,.009.016.057,0,.007.018.059v0l.018.059,0,0c.064.215.129.429.195.644h0l.02.064v0l.019.061,0,0,.018.06v0l.019.06,0,0,.018.058,0,.007.018.056,0,.009.018.057,0,0,.019.06v0l.02.062h0l.02.063h0q.1.321.206.641h0l.021.063v0l.02.06,0,.007.019.057,0,.006.019.057,0,.008.019.056,0,.007.019.057,0,.006.019.059,0,0,.02.06v0l.02.062v0q.138.414.281.826h0l.022.063h0l.021.062v0l.022.061v0l.022.061v0q.444,1.267.925,2.516h0a83.548,83.548,0,0,0,17.24,27.3h0l.044.047,0,0,.043.046h0l.044.046h0l.044.047h0l.045.047h0c.2.207.394.411.592.616l0,0,.043.044,0,0,.041.042,0,.006.039.04.008.008.038.039.007.007.039.04.007.007.039.04.006.006.04.041.006.006.042.042,0,0,.043.044,0,0q.23.233.461.464l.006.006.041.04,0,.006.04.039.008.009.038.038.009.008.036.036.012.011.034.035.012.011.034.035.012.011.035.035.011.01.034.034.013.013.035.034.011.011.035.035.011.01.038.037.008.008.038.038.008.008.046.044h0l.141.138,0,0,.041.04.01.009.037.036.011.011.034.034.015.014.031.03.018.017.029.028.017.016.029.029.018.017.028.027.019.018.027.026.021.02.026.025.019.019.027.026.02.019.027.025.019.019.027.026.02.019.027.026.019.018.029.027.018.017.027.026.02.019.025.023.023.022.023.023.023.021.025.024.022.02.02.019.058.056.013.012.026.024.022.021.025.023.021.02.027.026.019.018.028.026.019.017.028.027.019.017.028.027.018.016.028.027.019.017.028.027.018.017.029.026.019.018.028.026.017.016.03.028.017.016.03.028.015.014.028.025a9,9,0,0,0,12.222-13.214A64.847,64.847,0,0,1,390,444.5,65.574,65.574,0,0,1,455.5,379h0a64.868,64.868,0,0,1,39.9,13.548,9,9,0,1,0,10.976-14.266h0l-.039-.029,0,0-.038-.029,0,0-.161-.123,0,0-.037-.027-.007-.006-.035-.027-.008-.006-.155-.117-.008-.006-.034-.026-.01-.008-.033-.025-.012-.008-.15-.114-.012-.009-.032-.024-.012-.009-.032-.024-.011-.008-.117-.088h0l-.032-.024-.014-.011-.03-.022-.015-.011-.03-.023-.014-.01-.1-.077-.013-.01-.028-.021-.019-.013-.027-.02-.018-.014-.027-.02-.021-.015-.025-.019-.014-.011-.056-.041-.017-.012-.027-.02-.02-.014-.027-.02-.018-.014-.027-.02-.019-.014-.1-.07-.018-.013-.027-.02-.02-.014-.026-.019-.021-.016-.024-.017-.025-.018-.022-.016-.043-.032-.022-.015-.025-.019-.021-.015-.027-.019-.021-.016-.027-.019-.02-.014-.029-.021-.019-.014-.044-.032-.017-.012-.03-.021-.02-.015-.028-.02-.02-.014-.028-.021-.019-.013-.036-.025-.011-.009-.046-.032-.017-.012-.031-.022-.018-.013-.029-.021-.02-.014-.03-.021-.016-.012-.043-.03,0,0-.049-.035-.007-.005-.04-.028-.015-.01-.034-.024-.014-.01-.037-.026-.011-.008-.1-.068-.013-.009-.036-.026-.013-.009-.036-.025-.014-.01-.039-.027-.008-.006-.1-.069-.009-.006-.039-.027-.014-.01-.036-.025-.012-.009-.04-.027-.009-.006-.1-.069-.01-.006-.039-.027-.011-.008-.038-.026-.013-.009-.043-.03,0,0-.1-.069-.008-.006-.039-.026-.014-.01-.038-.026-.011-.007-.047-.032h0l-.1-.069-.008,0-.042-.029-.008-.006-.044-.029-.007,0-.1-.068h0l-.049-.033-.007,0-.042-.028-.011-.007-.042-.029-.007,0-.152-.1-.007,0-.043-.029-.008,0-.045-.03,0,0-.155-.1h0l-.05-.032,0,0-.207-.137h0l-.05-.034h0a83.056,83.056,0,0,0-27.951-11.757h0q-.317-.069-.634-.135h0l-.316-.065h0l-.062-.012h0l-.253-.051h0l-.253-.05h0l-.061-.012h0l-.317-.062h0l-.255-.048h0c-.107-.021-.212-.041-.319-.06h0l-.062-.011h0l-.254-.046h0l-.062-.011h0l-.192-.035h0l-.062-.011h0l-.061-.01h0l-.254-.044h0l-.061-.011h0l-.577-.1h0l-.062-.01h0l-.191-.031h-.006l-.058-.009h-.006l-.061-.01h0l-.192-.031h0l-.058-.009H468.6l-.058-.009h0l-.19-.03h-.008l-.055-.008-.009,0-.056-.008h-.007l-.127-.019h0l-.06-.009h-.008l-.055-.008-.009,0-.06-.009h0l-.13-.019h0l-.06-.009h-.011l-.053-.008h-.009l-.06-.009h0l-.128-.019h0l-.058-.008h-.008l-.054-.008h-.01l-.058-.008h0l-.128-.018h0l-.057-.007-.01,0-.054-.007h-.009l-.061-.009h0l-.127-.017h-.008l-.055-.008h-.011l-.052-.007-.011,0-.189-.025h-.009l-.052-.007h-.014l-.052-.007h-.009l-.189-.025h-.011l-.053-.007h-.011l-.054-.007H466l-.127-.016h0l-.062-.008H465.8l-.054-.006-.012,0-.055-.006h-.007l-.128-.016h0l-.058-.007h-.012l-.052-.007h-.012l-.053-.006h-.01l-.127-.015h0l-.057-.006-.014,0-.047,0-.018,0-.049-.006h-.011l-.126-.014-.011,0-.05,0-.016,0-.049,0-.014,0-.052-.006h-.01l-.126-.013-.011,0-.051,0-.015,0-.049,0-.014,0-.054,0h-.007l-.127-.013-.012,0-.049,0h-.017l-.047,0-.016,0-.049,0h-.013l-.063-.007h0l-.06-.006H463.9l-.047,0-.017,0-.046,0-.017,0-.054,0h-.007l-.064-.006h0l-.057-.006h-.015l-.047,0-.017,0-.048,0h-.014l-.056-.006h-.006l-.065-.006h0l-.058,0h-.016l-.046,0h-.018l-.047,0-.015,0-.058,0h0l-.063-.006h-.011l-.051,0h-.018l-.045,0-.017,0-.049,0h-.014l-.126-.011h-.006l-.057,0h-.013l-.049,0-.016,0-.048,0h-.015l-.125-.01h-.014l-.048,0-.019,0-.044,0-.019,0-.047,0h-.015l-.125-.01h-.014l-.047,0-.022,0-.04,0h-.022l-.045,0h-.016l-.124-.009h-.017l-.045,0-.021,0-.042,0h-.02l-.047,0h-.015l-.063,0h0l-.059,0-.016,0-.046,0h-.02l-.043,0h-.02l-.046,0-.016,0-.124-.008h-.018l-.045,0h-.02l-.043,0h-.02l-.05,0h-.011l-.064,0h0l-.057,0h-.016l-.046,0-.02,0-.044,0h-.019l-.049,0h-.013l-.063,0h-.009l-.051,0h-.023l-.041,0h-.021l-.042,0-.021,0-.05,0h-.012l-.062,0h-.014l-.048,0h-.02l-.042,0h-.023l-.04,0h-.023l-.044,0h-.018l-.061,0h-.018l-.043,0h-.024l-.039,0h-.023l-.041,0h-.021l-.056,0h-.006l-.062,0h-.015l-.048,0h-.019l-.043,0h-.022l-.043,0h-.019l-.059,0h0l-.064,0h-.012l-.05,0h-.083l-.046,0h-.017l-.124,0h-.02l-.043,0h-.086l-.043,0h-.019l-.062,0h0l-.059,0h-.017l-.045,0h-.021l-.042,0h-.084l-.063,0h-.272l-.062,0h-.009l-.054,0h-.21l-.063,0h-.272l-.063,0H455.5Z" transform="translate(-110.455 -125)"/>
<path class="cls-5" d="M797.012,400.005a9,9,0,0,0-7.9,13.3,65.548,65.548,0,0,1-78.693,93.237,9,9,0,1,0-5.79,17.044q1.482.5,2.989.953h0l.2.059h0l.047.014,0,0,.048.014h0l.2.058h0l.047.014h0l.2.057h0l.048.013.006,0,.245.07.007,0,.045.013h.006l.195.055.006,0,.044.012.009,0,.045.012h0l.149.041h0l.045.012.01,0,.044.012.007,0,.144.04h0l.044.012.011,0,.042.012.01,0,.191.051.009,0,.042.011.012,0,.042.011.01,0,.143.038h0l.043.011.013,0,.04.011.013,0,.143.038h0l.039.01.017,0,.038.01.016,0,.04.01.01,0,.137.035.011,0,.041.011.013,0,.041.011.014,0,.137.035.007,0,.039.01.017,0,.039.009.016,0,.038.01.016,0,.085.021,0,0,.038.009.016,0,.038.009.019,0,.037.009.017,0,.039.01h0l.09.022.015,0,.037.009.02,0,.034.008.022.006.036.009.013,0,.13.032.018,0,.037.009.018,0,.038.01.018,0,.126.03.017,0,.037.009.02,0,.036.009.02,0,.036.009.014,0,.082.02.01,0,.039.009.017,0,.037.009.019,0,.038.009.014,0,.13.03.017,0,.037.009.019,0,.037.009.018,0,.124.029.021,0,.035.008.022,0,.035.008.021,0,.035.008.02,0,.077.017.011,0,.036.008.02,0,.036.008.021,0,.036.008.017,0,.127.028.02.005.034.007.022,0,.035.008.022,0,.035.007.018,0,.076.016.013,0,.036.008.021,0,.036.008.021,0,.035.007.022,0,.121.026.022,0,.034.007.024,0,.033.007.025.006.032.007.023,0,.065.014.021,0,.035.007.022,0,.034.007.024,0,.033.007.025,0,.12.025.021,0,.035.008.022,0,.035.007.022,0,.036.007.007,0,.084.017.016,0,.035.007.023,0,.035.007.021,0,.036.008.02,0,.069.014.02,0,.033.006.024,0,.034.007.024,0,.033.006.024,0,.034.007.012,0,.074.015.023,0,.034.007.023,0,.034.007.023,0,.036.008.016,0,.072.014.02,0,.034.007.024,0,.034.006.022,0,.036.007.022,0,.077.014.01,0,.032.006.027,0,.03.006.028,0,.031.006.028,0,.029.006.032.006.054.01.026.005.032.006.025,0,.033.006.026,0,.033.006.024,0,.057.01.029.006.03.005.029,0,.03.006.028,0,.031,0,.028,0,.031.006.032.006.052.009.026,0,.033.006.026,0,.031.006.029,0,.029,0,.034.006.043.008.036.006.029,0,.03,0,.028,0,.031.006.029,0,.03,0,.028,0,.055.009.025,0,.035.006.026,0,.033.006.026,0,.035.006.025,0,.044.008.03,0,.04.007.027,0,.033.006.026,0,.034.006.025,0,.036.006.028,0,.051.009.026,0,.034.006.027,0,.032,0,.028,0,.03,0,.03,0,.043.007.034,0,.036.006.028.005.03,0,.03,0,.029,0,.031,0,.029,0,.046.008.037,0,.03,0,.029,0,.03,0,.03,0,.029,0,.032,0,.027,0,.055.008.029,0,.029,0,.031,0,.028,0,.032,0,.026,0,.032,0,.032,0,.046.007.036,0,.029,0,.029,0,.031,0,.029,0,.03,0,.031,0,.027,0,.055.008.028,0,.031,0,.031,0,.029,0,.028,0,.034,0,.026,0,.046.007.033,0,.035,0,.03,0,.031,0,.028,0,.031,0,.029,0,.032,0,.039,0,.043.006.029,0,.03,0,.03,0,.03,0,.03,0,.031,0,.027,0,.045.006.037,0,.034,0,.028,0,.031,0,.028,0,.033,0,.027,0,.035,0,.042.006.038,0,.028,0,.032,0,.029,0,.03,0,.03,0,.03,0,.03,0,.055.007.026,0,.033,0,.029,0,.031,0,.029,0,.031,0,.029,0,.038,0,.039,0,.038,0,.026,0,.035,0,.025,0,.036,0,.026,0,.039,0,.02,0,.057.007.025,0,.035,0,.027,0,.032,0,.029,0,.034,0,.026,0,.057.006.018,0,.041,0,.027,0,.033,0,.028,0,.034,0,.025,0,.04,0,.026,0,.051.006.026,0,.034,0,.028,0,.033,0,.027,0,.035,0,.025,0,.057.006.024,0,.035,0,.029,0,.032,0,.028,0,.033,0,.027,0,.046,0,.021,0,.049,0,.028,0,.033,0,.028,0,.033,0,.027,0,.036,0,.024,0,.057.006.024,0,.037,0,.025,0,.036,0,.026,0,.035,0,.025,0,.04,0,.043,0,.034,0,.028,0,.032,0,.029,0,.033,0,.027,0,.038,0,.022,0,.057,0,.024,0,.037,0,.027,0,.034,0,.026,0,.036,0,.025,0,.058.006h.018l.042,0,.024,0,.038,0,.024,0,.037,0,.025,0,.044,0,.018,0,.056,0,.024,0,.036,0,.028,0,.033,0,.028,0,.036,0,.023,0,.059.006h.019l.042,0,.024,0,.037,0,.024,0,.04,0h.021l.058,0h.008l.055,0h.02l.041,0,.024,0,.038,0,.023,0,.043,0,.018,0,.059,0,.021,0,.04,0,.024,0,.038,0,.024,0,.04,0,.021,0,.06,0h.013l.047,0,.025,0,.036,0h.025l.039,0,.022,0,.052,0h.008l.061,0h.02l.041,0,.024,0,.038,0h.024l.041,0,.02,0,.059,0h.019l.042,0,.024,0,.038,0,.024,0,.041,0h.02l.052,0h.013l.057,0,.021,0,.039,0,.025,0,.038,0,.023,0,.042,0h.02l.06,0h.016l.046,0,.021,0,.04,0,.023,0,.041,0h.021l.06,0h.009l.052,0h.023l.039,0,.024,0,.038,0h.024l.045,0h.016l.059,0h.023l.038,0,.026,0,.036,0h.027l.037,0h.023l.059,0h.019l.043,0h.024l.036,0h.027l.037,0h.024l.046,0h.015l.06,0h.022l.039,0h.025l.038,0h.023l.044,0h.018l.061,0h.015l.045,0h.025l.038,0h.024l.04,0h.022l.058,0h.006l.059,0h.083l.042,0h.021l.049,0h.012l.061,0h.02l.042,0h.086l.043,0h.019l.061,0h.011l.051,0h.02l.042,0h.023l.041,0h.083l.061,0h.541l.062,0H731.5A83.5,83.5,0,0,0,815,444.5v-1.012h0v-.276l0-.119v-.219l0-.117v-.277h0v-.2l0-.057V442.2l0-.059v-.276l0-.059v-.074l0-.056v-.014l0-.049V441.6l0-.055v-.017l0-.057v0l0-.053V441.4l0-.054v-.017l0-.045v-.015l0-.056V441.2l0-.058v0l0-.055v-.015l0-.055V441l0-.048v-.013l0-.055v-.018l0-.056V440.8l0-.05v-.018l0-.054v-.015l0-.048V440.6l0-.056v-.016l0-.057v-.006l0-.052V440.4l0-.053v-.018l0-.045v-.014l0-.054v-.02l0-.052v-.012l0-.047v-.019l0-.053v-.017l0-.043v-.018l0-.053v-.018l0-.055V439.8l0-.05v-.016l0-.054v-.017l0-.046V439.6l0-.055v-.016l0-.057v-.006l0-.051V439.4l0-.055v-.014l0-.049v-.012l0-.056V439.2l0-.057v-.008l0-.051v-.015l0-.055v-.016l0-.046v-.014l0-.054v-.018l0-.055V438.8l0-.05v-.017l0-.054v-.016l0-.045V438.6l0-.053v-.018l0-.055v-.009l0-.049V438.4l0-.053,0-.018,0-.045v-.013l0-.054V438.2l0-.051v-.016l0-.043,0-.021,0-.051,0-.019,0-.041v-.018l0-.051,0-.021,0-.05V437.8l0-.043,0-.021,0-.05,0-.022,0-.038v-.019l0-.05v-.023l0-.048,0-.018,0-.041,0-.022,0-.05,0-.022,0-.036,0-.023,0-.048,0-.023,0-.045,0-.022,0-.039,0-.024,0-.047,0-.024,0-.035,0-.025,0-.046,0-.023,0-.044,0-.025,0-.036,0-.025,0-.048,0-.022,0-.036,0-.027,0-.043,0-.024,0-.042,0-.027,0-.036,0-.024,0-.047,0-.025,0-.034,0-.028,0-.042,0-.025,0-.039,0-.031,0-.033,0-.026,0-.046,0-.028,0-.027,0-.041,0-.032,0-.027,0-.036,0-.035,0-.03,0-.027,0-.045,0-.029,0-.026,0-.041,0-.032,0-.029,0-.032,0-.039,0-.027,0-.03,0-.043,0-.028,0-.029,0-.039,0-.033,0-.027,0-.034,0-.037,0-.03,0-.027,0-.044,0-.029,0-.027,0-.043,0-.028,0-.031,0-.029,0-.041,0-.027,0-.029,0-.044,0-.028,0-.028,0-.042,0-.029,0-.029,0-.033,0-.038,0-.028,0-.028-.006-.044,0-.03,0-.026,0-.042,0-.029,0-.03,0-.031,0-.039,0-.027,0-.03-.006-.043,0-.028,0-.028,0-.043,0-.028,0-.029,0-.029-.006-.044,0-.024,0-.031,0-.042,0-.03,0-.025-.007-.049,0-.021,0-.034,0-.021-.007-.051,0-.021,0-.032-.006-.042,0-.031,0-.022-.007-.051,0-.022,0-.032,0-.024-.007-.048,0-.022,0-.032v-.009l-.009-.064,0-.021-.007-.052,0-.021,0-.033,0-.021-.008-.053,0-.018-.015-.108,0-.018-.008-.057,0-.017,0-.033,0-.019-.008-.056,0-.016-.016-.11,0-.014-.01-.067v-.007l0-.039v0l-.01-.07,0-.012-.017-.112,0-.013-.01-.067V432l0-.038v0l-.011-.072v-.008l-.018-.116v0l-.012-.077h0l-.018-.116v-.009l-.018-.114v-.009l-.012-.071v-.006l-.006-.039h0l-.012-.075v-.01l-.018-.113,0-.009-.012-.075h0l-.019-.116v-.007l-.019-.116v-.006l-.013-.077h0l-.007-.04h0l-.012-.075,0-.008-.019-.114,0-.01-.012-.072v0l-.021-.118v0l-.02-.118v0l-.035-.2v0l-.021-.118v0a82.923,82.923,0,0,0-8.448-24.48l0,0-.054-.1v0l-.091-.171,0,0-.055-.1,0,0-.09-.168,0-.007-.036-.066a9,9,0,0,0-7.917-4.707ZM731.5,361A83.5,83.5,0,0,0,648,444.5v2.62l0,.043v.026l0,.049v.02l0,.068v.095l0,.043v.1l0,.038v.1l0,.038v.068l0,.033v.069l0,.035v.033l0,.037v.031l0,.038v.068l0,.032v.038l0,.03v.038l0,.031,0,.037v.032l0,.037v.032l0,.039v.029l0,.043,0,.025,0,.057v.011l0,.069v.013l0,.056v.02l0,.048,0,.028,0,.041v.03l0,.037,0,.033,0,.036,0,.032,0,.036,0,.032,0,.037v.033l0,.035,0,.033,0,.036,0,.032,0,.036,0,.033,0,.035,0,.033,0,.035,0,.034,0,.034,0,.034,0,.034,0,.034,0,.036,0,.032,0,.039,0,.029,0,.041v.027l0,.043,0,.025,0,.046,0,.03,0,.06,0,.03,0,.038,0,.03,0,.039,0,.029,0,.039,0,.029,0,.039,0,.03,0,.038,0,.031,0,.037,0,.032,0,.036,0,.032,0,.036,0,.034,0,.033,0,.034,0,.035,0,.033,0,.036,0,.031,0,.037,0,.032,0,.036,0,.031,0,.037,0,.032,0,.037,0,.03,0,.038,0,.031,0,.039,0,.028,0,.044,0,.024.011.135,0,.029,0,.04,0,.028,0,.039,0,.029,0,.04,0,.028,0,.039,0,.03,0,.038,0,.03,0,.038,0,.029,0,.04,0,.028,0,.039,0,.031,0,.036,0,.031,0,.037,0,.031,0,.038,0,.03,0,.036,0,.032,0,.036,0,.032,0,.037,0,.03,0,.039,0,.029,0,.039,0,.028,0,.045,0,.022,0,.054,0,.014.013.136,0,.017,0,.051,0,.018,0,.05,0,.023,0,.044,0,.028,0,.039,0,.029,0,.039,0,.029,0,.038,0,.03,0,.037,0,.032,0,.035,0,.033,0,.035,0,.031,0,.037,0,.031,0,.036,0,.031,0,.037,0,.031,0,.037,0,.029,0,.04,0,.028,0,.04,0,.027,0,.041,0,.027.006.047,0,.019.006.055,0,.013.016.135,0,.02,0,.048,0,.023,0,.043,0,.028,0,.04,0,.028,0,.039,0,.028,0,.04,0,.027,0,.04,0,.028,0,.04,0,.027,0,.039,0,.029,0,.039,0,.028,0,.039,0,.028,0,.041,0,.026.005.041,0,.026.006.043,0,.024,0,.044,0,.023.006.045,0,.023.006.047,0,.019.007.053,0,.015.008.065v0l.018.135,0,.018.006.049,0,.022.006.045,0,.024,0,.043,0,.025.006.042,0,.026.006.041,0,.026.006.04,0,.028,0,.039,0,.028.006.039,0,.028.006.04,0,.027,0,.039,0,.028.006.04,0,.026.006.041,0,.027,0,.041,0,.025.006.042,0,.025.006.046,0,.02.007.046,0,.022.008.054,0,.012c.01.068.02.133.03.2l0,.014.008.053,0,.016.007.05,0,.019.008.049,0,.02.007.045,0,.025.006.042,0,.025.006.041,0,.026.007.042,0,.025.006.04,0,.027.007.04,0,.027.006.039,0,.028.007.039,0,.028.006.037,0,.03.006.038,0,.027.007.042,0,.024.007.044,0,.023.007.045,0,.021.009.056,0,.01.022.135v0l.011.064,0,.018.008.048,0,.02.007.047,0,.022.007.043,0,.025.007.042,0,.025.007.041,0,.025.008.042,0,.025.007.041,0,.025.007.041,0,.027.007.04,0,.025.008.042,0,.024.008.043,0,.023.007.044.005.022.008.047,0,.018.009.05,0,.017.009.052,0,.014.01.053,0,.014c.016.09.032.176.049.266l0,.011.01.056,0,.014.009.051,0,.02.008.046,0,.021.009.044,0,.025.008.042,0,.024.008.042,0,.023.008.044,0,.021.009.045,0,.021.009.046,0,.021.008.045,0,.021.009.045,0,.021.009.045,0,.021.009.048,0,.017.01.052,0,.014.011.057,0,.008.012.064v0c.017.09.035.178.053.267v.008l.012.058,0,.011.012.055,0,.014.011.052,0,.014.01.052,0,.017.01.048,0,.018.009.048,0,.019.01.047,0,.019.009.046,0,.021.009.045,0,.02.009.046,0,.02.01.047,0,.018.01.048,0,.018.01.048,0,.018.011.05,0,.015.012.057,0,.008.012.059,0,.007.057.265,0,.007.013.058,0,.012.012.053,0,.016.011.05,0,.017.011.047,0,.021.01.045,0,.019.01.047,0,.019.011.047,0,.019.01.046,0,.02.01.046,0,.019.01.046,0,.019.011.047,0,.019.011.046,0,.019.012.049,0,.016.013.055,0,.009.014.062v0c.026.111.051.22.077.33v0l.015.06,0,.01.013.055,0,.013.012.052,0,.016.012.048,0,.019.011.046,0,.019.011.046,0,.02.011.045,0,.02.011.045,0,.02.012.046,0,.018.011.048,0,.018.012.048,0,.016.011.048,0,.018.013.052,0,.011.014.057,0,.008c.032.132.065.262.1.394h0l.017.065v0l.016.061,0,.009.015.056,0,.01.014.054,0,.014.014.051,0,.013.013.051,0,.015.013.051,0,.014.013.05,0,.015.013.051,0,.013.013.052,0,.013.014.054,0,.01.015.057,0,.008.016.06v0l.14.522v0l.017.06,0,.008.015.056,0,.01.015.054,0,.012.015.053,0,.012.014.052,0,.013.014.052,0,.012.014.052,0,.013.014.052,0,.013.014.052,0,.012.016.054,0,.01.016.056,0,.008.017.061v0c.055.195.111.388.167.582l0,.006.017.058,0,.008.016.055,0,.012.016.053,0,.011.016.053,0,.012.016.053,0,.01.015.053,0,.012.016.054,0,.009.016.057,0,.007.018.059v0l.018.059,0,0c.064.215.129.429.195.644h0l.02.064v0l.019.061,0,0,.018.06,0,0,.018.06,0,0,.018.058,0,.007.018.056,0,.009.018.057,0,0,.019.06v0l.02.062h0l.02.063h0q.1.321.206.641h0l.021.063v0l.02.06,0,.007.019.057,0,.006.019.057,0,.008.019.056,0,.007.019.057,0,.006.019.059,0,0,.02.06v0l.02.062v0q.138.414.281.826h0l.022.063h0l.021.062v0l.022.061v0l.022.061v0q.444,1.267.925,2.516h0a83.548,83.548,0,0,0,17.24,27.3h0l.044.047,0,0,.043.046h0l.044.046h0l.044.047h0l.045.047h0c.2.207.394.411.592.616l0,0,.043.044,0,0,.041.042,0,.006.039.04.008.008.039.039.006.007.039.04.007.007.039.04.006.006.04.041.006.006.042.042,0,0,.043.044,0,0q.23.233.461.464l.006.006.041.04,0,.006.04.039.008.009.038.038.009.008.036.036.012.011.034.035.012.011.035.035.011.011.035.035.011.01.034.034.013.013.035.034.011.011.035.035.011.01.037.037.009.008.038.038.008.008.046.044h0l.141.138,0,0,.041.04.01.009.037.036.011.011.034.034.015.014.031.03.018.017.029.028.017.016.029.029.018.017.028.027.019.018.027.026.021.02.026.025.019.019.027.026.02.019.027.025.019.019.027.026.02.019.027.026.019.018.029.027.018.017.027.026.02.019.025.023.023.022.023.023.023.021.025.024.022.02.02.019.058.056.013.012.026.024.022.021.025.023.021.02.027.026.019.018.028.026.019.017.028.027.019.017.028.027.018.016.028.027.019.017.028.027.018.017.029.026.019.018.028.026.017.016.03.028.017.016.03.028.015.014.028.025a9,9,0,0,0,12.222-13.214A64.847,64.847,0,0,1,666,444.5,65.574,65.574,0,0,1,731.5,379h0a64.868,64.868,0,0,1,39.9,13.548,9,9,0,1,0,10.976-14.266h0l-.039-.029,0,0-.038-.029,0,0-.161-.123,0,0-.037-.027-.007-.006-.035-.027-.008-.006-.155-.117-.008-.006-.034-.026-.01-.008-.033-.025-.012-.008-.15-.114-.012-.009-.032-.024-.012-.009-.032-.024-.011-.008-.117-.088h0l-.032-.024-.014-.011-.03-.022-.015-.011-.03-.023-.014-.01-.1-.077-.013-.01-.028-.021-.019-.013-.027-.02-.018-.014-.027-.02-.021-.015-.025-.019-.014-.011-.056-.041-.017-.012-.027-.02-.02-.014-.027-.02-.018-.014-.027-.02-.019-.014-.1-.07-.018-.013-.027-.02-.02-.014-.026-.019-.021-.016-.024-.017-.025-.018-.022-.016-.043-.032-.022-.015-.025-.019-.021-.015-.027-.019-.021-.016-.027-.019-.02-.014-.029-.021-.019-.014-.044-.032-.017-.012-.03-.021-.02-.015-.028-.02-.02-.014-.028-.021-.019-.013-.036-.025-.011-.009-.046-.032-.017-.012-.031-.022-.018-.013-.029-.021-.02-.014-.03-.021-.016-.012-.043-.03,0,0-.049-.035-.007-.005-.04-.028-.015-.01-.034-.024-.014-.01-.037-.026-.011-.008-.1-.068-.013-.009-.036-.026-.013-.009-.036-.025-.014-.01-.039-.027-.008-.006-.1-.069-.009-.006-.039-.027-.014-.01-.036-.025-.012-.009-.04-.027-.009-.006-.1-.069-.01-.006-.039-.027-.011-.008-.038-.026-.013-.009-.043-.03,0,0-.1-.069-.008-.006-.039-.026-.014-.01-.038-.026-.011-.007-.047-.032h0l-.1-.069-.008,0-.042-.029-.008-.006-.044-.029-.007,0-.1-.068h0l-.049-.033-.007,0-.042-.028-.011-.007-.042-.029-.007,0-.152-.1-.007,0-.043-.029-.008,0-.045-.03,0,0-.155-.1h0l-.05-.032,0,0-.207-.137h0l-.05-.034h0a83.056,83.056,0,0,0-27.951-11.757h0q-.317-.069-.634-.135h0l-.316-.065h0l-.062-.012h0l-.253-.051h0l-.253-.05h0l-.061-.012h0l-.317-.062h0l-.255-.048h0c-.107-.021-.212-.041-.319-.06h0l-.062-.011h0l-.254-.046h0l-.062-.011h0l-.192-.035h0l-.062-.011h0l-.061-.01h0l-.254-.044h0l-.061-.011h0l-.577-.1h0l-.062-.01h0l-.191-.031h-.006l-.058-.009h-.006l-.061-.01h0l-.192-.031h0l-.058-.009H744.6l-.058-.009h0l-.19-.03h-.008l-.055-.008-.009,0-.056-.008h-.007l-.127-.019h0l-.06-.009h-.008l-.055-.008-.009,0-.06-.009h0l-.13-.019h0l-.06-.009h-.011l-.053-.008h-.009l-.06-.009h0l-.128-.019h0l-.058-.008h-.008l-.054-.008h-.01l-.058-.008h0l-.128-.018h0l-.057-.007-.01,0-.055-.007h-.008l-.061-.009h0l-.128-.017h-.007l-.055-.008h-.011l-.052-.007-.011,0-.189-.025h-.009l-.052-.007h-.014l-.052-.007h-.009l-.189-.025h-.011l-.053-.007h-.011l-.054-.007H742l-.127-.016h0l-.062-.008H741.8l-.053-.006-.012,0-.055-.006h-.007l-.128-.016h0l-.058-.007h-.012l-.052-.007h-.012l-.053-.006h-.01l-.127-.015h0l-.057-.006-.014,0-.047,0-.018,0-.049-.006h-.011l-.126-.014-.011,0-.05,0-.016,0-.049,0-.014,0-.052-.006h-.01l-.126-.013-.011,0-.051,0-.015,0-.049,0-.014,0-.054,0h-.007l-.127-.013-.012,0-.049,0h-.017l-.047,0-.016,0-.049,0h-.013l-.063-.007h0l-.06-.006H739.9l-.047,0-.017,0-.046,0-.017,0-.054,0h-.007l-.064-.006h0l-.057-.006h-.015l-.047,0-.017,0-.048,0h-.014l-.056-.006h-.006l-.065-.006h0l-.058,0h-.016l-.046,0h-.018l-.047,0-.015,0-.058,0h0l-.063-.006h-.011l-.051,0h-.018l-.045,0-.017,0-.049,0h-.014l-.126-.011h-.006l-.057,0h-.013l-.049,0-.016,0-.048,0h-.015l-.125-.01h-.014l-.048,0-.019,0-.044,0-.019,0-.047,0h-.015l-.125-.01h-.014l-.047,0-.022,0-.04,0h-.022l-.045,0h-.016l-.124-.009h-.017l-.045,0-.021,0-.042,0h-.02l-.047,0h-.016l-.062,0h0l-.059,0-.016,0-.046,0h-.02l-.043,0h-.02l-.046,0-.016,0-.124-.008h-.018l-.045,0h-.02l-.043,0h-.02l-.05,0h-.011l-.064,0h0l-.057,0h-.016l-.046,0-.02,0-.044,0h-.019l-.049,0h-.013l-.063,0h-.009l-.051,0h-.023l-.041,0h-.021l-.042,0-.021,0-.05,0h-.012l-.062,0h-.014l-.048,0h-.02l-.042,0h-.023l-.04,0h-.023l-.044,0h-.018l-.061,0h-.018l-.043,0h-.024l-.039,0h-.023l-.041,0h-.021l-.056,0h-.006l-.062,0h-.015l-.048,0h-.019l-.043,0h-.022l-.043,0h-.019l-.059,0h0l-.064,0h-.012l-.05,0h-.083l-.046,0h-.017l-.124,0h-.02l-.043,0h-.086l-.043,0h-.019l-.062,0h0l-.059,0h-.017l-.045,0h-.021l-.042,0h-.084l-.063,0h-.272l-.062,0h-.009l-.054,0h-.21l-.063,0h-.272l-.063,0H731.5Z" transform="translate(-110.455 -125)"/>
<path class="cls-2" d="M530,425.136" transform="translate(-110.455 -125)"/>
<path class="cls-2" d="M855,413.051" transform="translate(-110.455 -125)"/>
<path class="cls-2" d="M530,368.971" transform="translate(-110.455 -125)"/>
<path class="cls-2" d="M879.331,373" transform="translate(-110.455 -125)"/>
<path class="cls-2" d="M430,421" transform="translate(-110.455 -125)"/>
<path class="cls-2" d="M138,817" transform="translate(-110.455 -125)"/>
</g>

<g id="Mouth">
<path class="cls-5" d="M749,575H438a18,18,0,0,0-18,18V700h0a18,18,0,0,0,18,18V700h0v18h25.445a9.5,9.5,0,0,0,0-19H439V594H748V699H495.445a9.5,9.5,0,1,0,0,19H749V700h18V593h0a18,18,0,0,0-18-18,9.5,9.5,0,0,1,9.5,9.5h0A9.5,9.5,0,0,0,749,575Zm18,125H749v18a18,18,0,0,0,18-18Z" transform="translate(-110.455 -125)"/>
<line class="cls-6" x1="397.545" y1="486" x2="397.545" y2="557"/>
<line class="cls-6" x1="482.545" y1="486" x2="482.545" y2="557"/>
<line class="cls-6" x1="563.545" y1="486" x2="563.545" y2="557"/>
</g>
</svg>